<?xml version="1.0" encoding="utf-8"?>
<!-- Generator: Adobe Illustrator 27.5.0, SVG Export Plug-In . SVG Version: 6.00 Build 0)  -->
<svg version="1.1" xmlns="http://www.w3.org/2000/svg" xmlns:xlink="http://www.w3.org/1999/xlink" x="0px" y="0px"
	 viewBox="0 0 500 500" style="enable-background:new 0 0 500 500;" xml:space="preserve">

<g id="OBJECTS">
	<path style="fill:#F1EDD8;" d="M59.265,229.291c-1.23-1.041-3.503-1.704-5.112-0.947c-1.893-3.124-5.681-5.396-8.994-2.65
		c-0.568-1.042-1.704-2.084-2.935-1.137c-1.326-2.841-2.556-3.976-5.491-4.923c-2.367-0.757-4.639-0.946-6.532,0.757
		c-1.326-2.84-3.787-3.881-6.817-3.881c-3.124,0-4.356,2.935-4.734,5.586c-4.449-1.136-6.532,3.976-6.437,6.816L59.265,229.291z"/>
	<path style="fill:#F1EDD8;" d="M370.112,227.194c1.634-1.383,4.653-2.263,6.79-1.257c2.515-4.149,7.546-7.166,11.946-3.52
		c0.754-1.385,2.263-2.768,3.898-1.509c1.761-3.773,3.395-5.281,7.293-6.539c3.144-1.006,6.161-1.257,8.676,1.006
		c1.761-3.772,5.029-5.155,9.054-5.155c4.149,0,5.785,3.898,6.288,7.418c5.91-1.509,8.676,5.281,8.549,9.054L370.112,227.194z"/>
	<g>
		<defs>
			<rect id="SVGID_3_" x="-0.001" y="0.001" width="500" height="500"/>
		</defs>
		<clipPath id="SVGID_00000037683957468306079060000010039418780256589727_">
			<use xlink:href="#SVGID_3_"  style="overflow:visible;"/>
		</clipPath>
		<path style="clip-path:url(#SVGID_00000037683957468306079060000010039418780256589727_);fill:#F1EDD8;" d="M36.073,26.044
			c-0.935-3.633-7.163-5.294-10.173-3.633c-0.31-4.67-6.643-5.916-9.86-3.633C15.419,11.929,7.53,6.427,0.99,5.701
			C-2.02,5.39-4.82,5.39-7.832,5.908c-4.152,0.623-5.918,2.18-8.303,5.606c-2.284,3.009-5.19,6.228-5.606,10.068
			c-0.104,1.245,0,2.492-0.104,3.633c0,0.519-0.622,2.491,0,1.972L36.073,26.044z"/>
		<path style="clip-path:url(#SVGID_00000037683957468306079060000010039418780256589727_);fill:#F1EDD8;" d="M456.214,356.718
			c0.909-3.523,6.932-4.432,9.659-3.523c0.909-2.045,1.25-3.977,3.409-5.227c2.727-1.591,5.34-1.25,7.84,0.227
			c1.363-2.955,2.272-5.681,5.795-6.477c3.068-0.796,6.022-0.455,8.409,1.818c0.682-1.136,1.932-1.25,3.067-1.136
			c-1.022-3.182,0.796-6.25,3.41-8.068c2.954-2.045,6.135-1.932,9.317-0.682c6.817,2.841,8.182,11.136,8.635,17.613
			c0.113,1.705,0.228,3.523,0,5.114L456.214,356.718z"/>
		<path style="clip-path:url(#SVGID_00000037683957468306079060000010039418780256589727_);fill:#F1EDD8;" d="M434.568,100.855
			c2.172-1.838,6.184-3.008,9.023-1.671c3.342-5.514,10.027-9.523,15.875-4.678c1.002-1.84,3.008-3.678,5.18-2.006
			c2.34-5.014,4.512-7.018,9.691-8.689c4.178-1.337,8.188-1.67,11.529,1.337c2.34-5.013,6.684-6.851,12.031-6.851
			c5.514,0,7.688,5.18,8.355,9.858c7.854-2.005,11.529,7.018,11.361,12.031L434.568,100.855z"/>
	</g>
	<g>
		<defs>
			<rect id="SVGID_00000114073834000918086120000000700897271204800152_" x="-0.001" y="0.001" width="500" height="500"/>
		</defs>
		<clipPath id="SVGID_00000053507062551854553160000011533046204804874918_">
			<use xlink:href="#SVGID_00000114073834000918086120000000700897271204800152_"  style="overflow:visible;"/>
		</clipPath>
	</g>
	<rect x="-0.001" y="466.722" width="500" height="33.278"/>
	<path style="fill:#F1EDD8;" d="M111.045,147.195c-1.566-3.131-7.828-6.263-14.092-3.914c-8.029-10.085-17.342-2.52-17.342-2.52
		c-1.81,0.079-4.578-2.96-10.057,0.171c-2.348,0.783-6.051,4.499-8.4,6.065L111.045,147.195z"/>
	<path style="fill:#F1EDD8;" d="M389.621,114.928c-1.566-3.131-7.828-6.263-14.092-3.914c-8.029-10.085-17.342-2.52-17.342-2.52
		c-1.811,0.079-4.578-2.96-10.057,0.171c-2.348,0.783-6.051,4.499-8.4,6.065L389.621,114.928z"/>
	<g>
		<path d="M451.676,460.632c-1.949,0.016-4.014,0.101-5.713-0.811c-2.498-1.342-3.447-4.425-5.814-5.968
			c-3.371-2.197-8.081-0.47-11.953-1.699c-6.208-1.972-7.476-10.194-12.891-13.701c-3.848-2.493-9.194-2.188-12.882-4.893
			c-5.871-4.307-4.489-13.62-9.537-18.792c-2.122-2.173-5.131-3.333-7.569-5.179c-4.151-3.142-6.361-8.011-8.413-12.676
			c-6.204-14.107-36.767-119.709-55.18-154.614c2.421-1.816,4.767-3.473,6.839-5.8c3.024-3.396,3.675-16.482,3.749-28.877
			c1.167,1.373,1.844,3.132,1.803,4.903c2.005-1.676,3.115-4.282,2.904-6.819c0.346,1.486,1.145,2.874,2.273,3.95
			c0.227-2.566,1.3-4.987,1.879-7.501c0.58-2.515,0.586-5.372-1.072-7.402c-1.081-1.324-2.743-2.132-3.811-3.466
			c-1.339-1.674-1.55-3.903-1.781-5.997c-0.36-3.272-0.945-6.667-2.957-9.337c-0.853-1.132-1.932-2.09-2.842-3.18
			c-1.732-2.077-3.654-5.694-3.09-8.391c0.836,0.169,1.826,0.31,2.686,0.054c0.809-0.241,1.473-1.376,2.045-1.526
			c-2.205,0.578-4.515-0.478-6.364-1.762c-4.809-3.342-9.313-9.495-9.878-15.28c-0.167-1.708,0.984-2.584,0.461-4.524
			c-0.292-1.081-0.514-1.153,0.039-2.14c0.574-1.024,1.506-1.708,1.775-2.948c0.272-1.253-0.231-1.932-1.015-2.912
			c5.095-2.961-3.358-10.01-5.711-12.122c-2.958-2.656-5.743-4.454-9.648-5.572c-1.879-0.538-3.936-1.342-5.935-1.077
			c-3.624,0.48-6.808,2.882-14.706,5.514c-2.055,0.876-4.466,2.974-5.546,4.868c-1.169,2.052-0.691,3.892-0.789,6.05
			c-0.114,2.534-2.572,3.796-0.108,6.052c1.323,1.212,2.35,2.823,2.173,4.682c-0.169,1.777-1.52,3.302-1.38,5.188
			c0.122,1.644,1.072,3.46,1.635,5.03c0.821,2.29,2.477,4.446,3.723,6.547c0.389,0.655,0.792,1.327,1.409,1.797
			c0.948,0.722,2.268,0.851,3.461,0.645c1.193-0.206,2.303-0.708,3.426-1.143c0.33-0.128,0.695-0.252,1.036-0.149
			c0.768,0.232,0.433,1.959,0.461,2.528c0.115,2.306,0.503,4.197-1.248,6.064c-1.931,2.059-3.652,3.232-6.454,3.671
			c-3.442,0.539-9.43,0.179-11.912,3.441c-0.101,0.133-0.161,0.245-0.195,0.345c-0.087,0.095-0.178,0.186-0.261,0.287
			c-1.254,1.54-1.472,3.415-1.948,5.279c-0.646,0.015-1.292,0.03-1.939,0.045c-0.039,5.703-0.096,11.406-0.173,17.109
			c1.369,2.727,0.688,6.885,0.846,9.844c0.186,3.493,0.432,6.982,0.667,10.473c0.079,1.169,0.119,2.414-0.496,3.429
			c-0.079,0.131-0.185,0.233-0.283,0.344c-3.352-12.678-12.138-43.923-13.4-46.064c-1.433-2.432-1.722-5.349-3.698-7.506
			c-1.905-2.081-4.822-2.917-7.61-3.493c-3.731-0.771-7.332-0.968-10.758-2.562c-1.934-0.9-4.11-1.449-6.123-2.166
			c-1.385-0.493-4.3-2.272-5.719-2.138c-0.328,0.031-0.643,0.059-0.962,0.088c-0.344-1.104-0.703-2.199-0.982-3.332
			c-0.153-0.621-0.201-2.018-0.623-2.487c-0.798-0.889-1.427-0.321-1.956,0.313c-0.063-2.706,0.004-5.45,0.896-5.862
			c0.951-0.439,2.798,0.945,5.641,0.587c1.863-0.235,3.002-0.645,3.992-2.064c1.805-2.589,1.765-5.413,3.041-8.226
			c1.178-2.597,1.128-4.704,1.114-7.532c-0.006-1.22-0.005-2.542,0.392-3.697c0.41-1.194,1.015-2.209,1.004-3.503
			c-0.01-1.151-0.328-1.496,0.283-2.522c0.527-0.885,1.341-1.317,1.625-2.411c0.3-1.153-0.46-2.293-0.147-3.364
			c0.178-0.609,0.798-0.981,1.137-1.52c0.451-0.715,0.32-1.732-0.297-2.315c0.659-0.018,1.302,0.44,1.489,1.061
			c0.169-1.157,0.318-2.417-0.288-3.422c-0.624-1.037-1.897-1.532-2.636-2.492c-1.261-1.639-0.703-4.236-2.178-5.693
			c-0.86-0.849-2.164-1.046-3.373-1.199c-2.909-0.367-5.14-0.478-7.588-2.037c-2.128-1.355-4.29-2.831-6.873-3.137
			c-4.948-0.587-9.676,0.72-12.976,4.452c-0.37,0.419-4.328,0.284-5.141,0.46c-1.538,0.331-3.025,0.868-4.387,1.65
			c-1.909,1.096-3.772,2.505-4.395,4.72c-0.415,1.477-0.271,3.051-0.519,4.565c-0.248,1.514-1.076,3.121-2.559,3.515
			c0.657,0.312,1.473,0.261,2.085-0.131c0.366,1.177,0.272,2.491-0.258,3.604c-0.219,0.461-0.518,0.924-0.478,1.433
			c0.04,0.509,0.664,0.977,1.058,0.652c-1.236,1.021,1.782,7.02,2.056,8.34c0.743,3.58,1.981,5.695,4.656,8.238
			c-0.036-0.099-0.071-0.198-0.107-0.297c0.353,0.567,1.057,0.957,1.672,1.312c2.516,1.451,2.003,11.733,1.481,15.339
			c-0.205-0.163-0.41-0.326-0.63-0.493c-2.077,0.014-2.379,0.592-3.026,2.456c-0.542,1.562-1.364,3.009-2.268,4.403
			c-1.667-0.146-3.346-0.019-5.221,0.819c-4.142,1.851-8.124,4.596-12.481,5.898c-1.229,0.207-2.476,0.403-3.737,0.656
			c-1.528,0.097-3.339,0.24-4.128,1.139c-1.405,0.55-2.699,1.296-3.707,2.397c-1.975,2.158-2.264,5.074-3.698,7.506
			c-1.403,2.381-12.113,40.761-14.307,49.568c-2.453,9.848,1.315,17.686,6.141,26.387c3.125,5.633,6.719,10.961,10.143,16.414
			c0.198,0.316,0.402,0.646,0.436,1.016c0.036,0.381-0.059,0.878,0.288,1.052c0.523,0.263,0.868-0.512,1.337-0.483
			c0.563,0.035,1.02,0.708,1.418,1.08c0.212,0.198,0.456,0.402,0.709,0.609c-0.283,2.689-0.613,5.382-1.079,8.076
			c-0.054,0.313,2.777-0.403,5.216-1.108c0.114,0.463,0.241,0.912,0.404,1.324c0.232,0.587,0.513,1.163,0.835,1.713
			c1.346,26.039,9.923,133.563,11.318,145.301c0.946,7.958,1.664,16.365,3.76,24.118c0.183,0.678,1.629,0.693,1.709,1.312
			c0.197,1.523-0.849,3.389-1.369,4.819c-1.269,3.487-2.766,6.889-3.92,10.416c-0.612,1.871-1.923,4.847-1.586,6.843
			c0.538,3.182,1.088,2.398,4.254,2.243c3.557-0.174,14.637,0.544,16.943-1.862c4.199-4.382-5.783-24.479,0.305-25.795
			c0.416-8.355-0.327-16.568-0.327-24.936c0-3.806-0.127-7.307-0.675-10.954c-0.347-2.307-0.445-4.264-0.2-6.524
			c0.325-2.998,0.497-12.539,0.491-15.806c-0.008-3.66,5.077-60.32,7.026-79.344c1.95,19.024,7.034,75.684,7.026,79.344
			c-0.007,3.268,0.165,12.808,0.491,15.806c0.245,2.259,0.147,4.216-0.2,6.524c-0.548,3.647-0.676,7.148-0.676,10.954
			c0,8.367-0.743,16.58-0.327,24.936c6.088,1.316-3.893,21.413,0.306,25.795c2.306,2.406,13.385,1.688,16.943,1.862
			c3.165,0.155,3.716,0.939,4.254-2.243c0.055-0.328,0.054-0.688,0.031-1.059c4.563,1.321,11.198,0.457,15.739,0.935
			c1.985,0.209,3.969,0.418,5.954,0.627c25.026,2.634,50.451,5.259,75.256,1.139c6.724-1.117,13.454-2.732,20.27-2.388
			c8.196,0.414,15.76,2.412,24.015,2.079c7.258-0.293,14.608,0.019,21.93-0.161c31.086-0.761,62.304-0.193,93.215-3.779
			C477.49,464.707,464.585,460.526,451.676,460.632z M226.031,106.212l0.939,0.958c0.287,0.265,0.545,0.503,0.811,0.719
			c0.545,0.435,1.001,0.784,2.007,1.146c-0.343,0.42-0.897,0.617-1.446,0.595c-0.556-0.007-1.096-0.239-1.512-0.582
			c-0.417-0.346-0.729-0.801-0.876-1.305C225.799,107.248,225.787,106.698,226.031,106.212z M162.5,175.916
			c0.383,2.294,0.653,4.581,0.936,6.859c0.292,2.277,0.562,4.548,0.897,6.812l0.988,6.808c0.329,2.276,0.644,4.562,0.824,6.881
			c-0.79-2.187-1.427-4.41-1.973-6.659c-0.556-2.246-0.987-4.525-1.324-6.822c-0.31-2.3-0.52-4.615-0.576-6.933
			C162.209,180.546,162.262,178.228,162.5,175.916z M165.443,249.449c-0.138,0.682-0.323,1.436-0.913,1.82
			c-0.154,0.1-0.338,0.144-0.525,0.145c-0.671-0.982-1.299-1.977-1.515-2.695c-0.921-3.066-1.793-6.149-2.898-9.157
			c-0.163-0.444-0.329-0.913-0.249-1.379c0.074-0.43,0.35-0.804,0.441-1.23c0.164-0.764-0.385-1.607-1.16-1.782
			c0.456-0.282,0.938-0.592,1.149-1.079c0.211-0.487-0.014-1.187-0.546-1.267c1.379-1.151,1.724-3.069,2.061-4.816
			c0.727-3.762,3.128-14.657,4.747-21.783c0.144,1.599,0.281,3.199,0.399,4.802c0,7.057,0.348,14.81,0.17,26.18
			C166.065,241.64,165.669,248.333,165.443,249.449z M199.605,224.602c-0.154,3.635-0.439,7.265-0.837,10.885
			c-0.818,7.236-2.137,14.435-4.291,21.439c-1.126,3.481-2.41,6.952-4.408,10.128c-1.033,1.546-2.226,3.121-4.067,4.054
			c-0.913,0.455-2.033,0.643-3.061,0.391c-1.034-0.225-1.892-0.803-2.62-1.43c-1.444-1.271-2.508-2.907-3.227-4.608
			c-0.716-1.69-1.42-3.288-2.645-4.571c-0.576-0.654-1.276-1.232-1.96-1.834l-2.047-1.794c-1.369-1.191-2.726-2.395-4.075-3.609
			c1.453,1.092,2.898,2.193,4.331,3.308l2.155,1.665c0.713,0.553,1.454,1.089,2.124,1.757c1.37,1.301,2.217,3.068,2.972,4.677
			c0.753,1.612,1.786,3.043,3.112,4.13c1.299,1.105,2.954,1.531,4.362,0.742c1.421-0.74,2.527-2.172,3.451-3.638
			c1.836-3.002,3.101-6.399,4.173-9.818c2.147-6.867,3.498-13.993,4.577-21.138c0.534-3.577,0.946-7.175,1.247-10.783
			c0.35-3.606,0.529-7.227,0.643-10.857C199.74,217.326,199.707,220.965,199.605,224.602z M243.895,195.799
			c0.288-0.276,0.619-0.529,1.08-0.721c0.087,0.491,0.035,0.915-0.069,1.311c-0.096,0.401-0.263,0.764-0.473,1.101
			c-0.212,0.335-0.465,0.644-0.783,0.907c-0.31,0.267-0.667,0.501-1.145,0.64c-0.03-0.497,0.053-0.905,0.174-1.286
			c0.113-0.385,0.282-0.73,0.482-1.055C243.364,196.373,243.599,196.07,243.895,195.799z M240.489,195.106
			c0.272-2.783,0.592-5.568,0.768-8.329c0.197-2.764,0.211-5.541,0.154-8.326c-0.064-2.786-0.227-5.58-0.336-8.401
			c0.723,2.728,1.213,5.513,1.499,8.328c0.298,2.814,0.349,5.66,0.178,8.496c-0.208,2.838-0.595,5.624-1.105,8.397
			c-0.506,2.77-1.12,5.514-1.871,8.235C239.912,200.686,240.203,197.891,240.489,195.106z M230.52,266.863
			c0.081-0.183,0.204-0.363,0.359-0.534c0.137-0.153,0.221-0.22,0.335-0.333c0.216-0.202,0.435-0.403,0.659-0.595
			c0.449-0.386,0.903-0.748,1.342-1.094c0.438-0.346,0.858-0.696,1.264-1.07l0.985-0.915c-0.156-0.127-0.304-0.267-0.422-0.416
			c-0.458-0.548-0.706-1.15-0.913-1.738l-0.269-0.762l0.803-0.115c0.831-0.119,1.688-0.726,2.421-1.459
			c0.74-0.736,1.404-1.59,2.043-2.465c1.186-1.646,2.261-3.399,3.355-5.145c-0.005-0.005-0.008-0.011-0.013-0.015
			c-0.298-0.287-0.63-0.552-0.836-0.908c-0.794-1.376,0.405-3.739-1.065-4.383c-0.263-0.115-0.572-0.136-0.799-0.309
			c-0.191-0.145-0.277-0.364-0.322-0.601c0.199-0.736,0.305-1.553,0.281-2.481c-0.472-18.098,0.438-27.548-0.082-37.763
			c0.753,3.268,1.826,8.045,2.826,12.59c-0.649,0.306-1.268,0.658-1.779,1.085c-1.685,1.407-0.593,2.982-0.645,4.918
			c-0.045,1.681-0.15,3.062,0.3,4.722c0.862,3.181,2.547,7.461,5.76,8.834c0.164,0.07,0.311,0.105,0.463,0.151
			c-0.126,0.279-0.175,0.591-0.11,0.891c0.092,0.426,0.368,0.801,0.441,1.23c0.08,0.466-0.086,0.934-0.249,1.379
			c-1.105,3.008-1.978,6.091-2.898,9.157c-0.214,0.712-0.391,1.524-0.603,2.322c-0.185-0.272-0.391-0.524-0.619-0.756
			c-0.781,1.896-1.626,3.769-2.667,5.563c-0.561,0.965-1.181,1.907-1.948,2.774c-0.373,0.44-0.815,0.841-1.295,1.215
			c-0.29,0.196-0.606,0.374-0.947,0.518c0.125,0.236,0.261,0.452,0.421,0.624c0.147,0.168,0.29,0.27,0.495,0.389
			c0.066,0.043,0.108,0.055,0.246,0.155l0.116,0.097l0.055,0.052c0.037,0.046,0.072,0.098,0.103,0.155
			c0.062,0.113,0.099,0.246,0.11,0.361c-0.001,0.086-0.014,0.179-0.038,0.269c-0.228,0.541-0.331,0.497-0.447,0.66l-1.256,1.201
			c-0.427,0.404-0.878,0.79-1.329,1.156l-1.318,1.054l-0.617,0.542c-0.089,0.086-0.225,0.204-0.275,0.265
			c-0.037,0.042-0.081,0.092-0.115,0.172c-0.164,0.293-0.204,0.825-0.197,1.327c0.003,0.515,0.07,1.055,0.159,1.593
			c0.382,2.161,1.082,4.324,1.849,6.444c0.804,2.111,1.617,4.238,2.78,6.204c-0.772-0.851-1.388-1.831-1.984-2.811
			c-0.598-0.983-1.14-1.999-1.633-3.039c-0.98-2.084-1.847-4.231-2.344-6.547c-0.121-0.581-0.222-1.172-0.253-1.797
			C230.19,268.256,230.176,267.603,230.52,266.863z M220.487,275.125c-0.715,0.295-1.613,0.325-2.36,0.04
			c-0.751-0.27-1.358-0.721-1.888-1.189c-1.063-0.958-1.86-2.138-2.513-3.341c-1.267-2.443-2.021-5.057-2.469-7.699
			c-0.438-2.639-0.61-5.339-0.252-7.981c0.265,2.64,0.756,5.213,1.393,7.738c0.663,2.511,1.457,5,2.651,7.236
			c0.582,1.124,1.283,2.165,2.158,3.008c0.869,0.882,1.847,1.405,2.897,1.081c1.062-0.331,2.064-1.224,2.944-2.15
			c0.898-0.937,1.709-1.979,2.541-3.016c-0.549,1.212-1.201,2.375-1.973,3.483C222.815,273.409,221.926,274.524,220.487,275.125z
			 M259.834,255.347c-0.574,1.639-0.945,3.339-1.354,5.02c-9.126,37.477-13.555,76.414-19.315,114.45
			c-3.229,21.322-6.371,42.658-9.3,64.02c-1.006,7.335-2.002,14.673-2.88,22.023c-0.001,0.005-0.002,0.01-0.002,0.015
			c-0.421-1.073-0.839-2.148-1.233-3.232c-0.52-1.43-1.566-3.295-1.369-4.819c0.08-0.619,1.525-0.634,1.709-1.312
			c2.096-7.752,2.814-16.16,3.76-24.118c1.955-16.447,2.8-33.021,2.523-49.577c-0.021-1.239-0.042-2.513,0.401-3.673
			c0.338-0.884,0.928-1.654,1.308-2.521c0.602-1.375,0.646-2.914,0.68-4.411c0.259-11.437,3.699-67.284,4.023-82.942
			c1.17-1.03,2.008-2.437,2.584-3.891c0.163-0.412,0.29-0.86,0.404-1.324c2.438,0.705,5.27,1.421,5.216,1.108
			c-0.463-2.681-0.789-5.379-1.072-8.081c0.251-0.205,0.493-0.407,0.703-0.604c0.398-0.372,0.855-1.045,1.418-1.08
			c0.468-0.029,0.814,0.746,1.337,0.483c0.347-0.174,0.252-0.671,0.288-1.052c0.035-0.37,0.238-0.7,0.436-1.016
			c3.424-5.452,7.018-10.78,10.143-16.414c0.34-0.613,0.673-1.221,1.001-1.827C260.827,252.151,260.396,253.745,259.834,255.347z
			 M275.825,191.107c-0.413,1.939-1.298,3.78-2.359,5.433c-1.072,1.658-2.135,3.19-2.831,4.956c-0.388,0.89-0.763,1.74-0.916,2.591
			c-0.161,0.848-0.122,1.776-0.042,2.694c0.186,1.842,0.688,3.695,1.238,5.525c0.542,1.843,1.181,3.648,1.79,5.521
			c0.702,2.16,1.184,4.423,1.539,6.664c0.183,1.159,0.323,2.325,0.414,3.495c0.048,0.612,0.139,1.23,0.085,1.845
			c-0.066,0.747-0.371,1.089-0.761,1.676c-0.148,0.218-0.314,0.417-0.487,0.601c-0.707,0.734-1.483,1.221-2.147,1.877
			c-0.582,0.537-1.144,1.11-1.713,1.676c-0.017,0.017-0.035,0.032-0.051,0.049c-0.196,0.193-0.397,0.381-0.597,0.57
			c-0.105,0.097-0.208,0.196-0.314,0.291c-0.171,0.157-0.344,0.313-0.52,0.464c-0.648,0.573-1.3,1.145-1.893,1.773
			c0.347-1.334,0.613-2.681,0.758-4.058c0.737,0.273,1.5,0.63,2.24,0.819c0.557-0.659,1.107-1.329,1.693-1.977
			c0.635-0.73,1.383-1.352,2.009-2.091c0.584-0.689,0.725-1.359,0.754-2.27c0.059-1.845-0.499-3.662-0.876-5.426
			c-0.401-1.874-0.903-3.727-1.501-5.537c-1.221-3.639-2.684-7.318-3.096-11.352c-0.085-1.009-0.1-2.043,0.127-3.101
			c0.228-1.058,0.682-1.982,1.09-2.855c0.786-1.838,2.054-3.451,3.153-4.995c1.145-1.534,2.038-3.2,2.634-5.013
			c0.595-1.809,0.683-3.76,0.754-5.699C276.193,187.178,276.258,189.158,275.825,191.107z M307.742,135.796
			c0.606-0.12,1.201-0.171,1.788-0.206c0.588-0.032,1.164-0.043,1.751-0.03c0.589,0.002,1.174,0.015,1.857,0.059
			c-0.436,0.533-1.035,0.87-1.644,1.093c-0.612,0.234-1.252,0.341-1.882,0.377c-0.631,0.031-1.255-0.006-1.869-0.125
			c-0.615-0.109-1.216-0.278-1.83-0.577C306.518,136.064,307.137,135.907,307.742,135.796z M288.789,134.056
			c-1.841-1.977-3.386-4.301-4.147-6.873c1.332,2.315,3.053,4.295,4.967,6.044c1.927,1.733,4.047,3.245,6.327,4.448
			c2.268,1.222,4.701,2.136,7.228,2.633c2.529,0.487,5.159,0.505,7.767-0.089c-2.404,1.193-5.228,1.548-7.937,1.247
			c-2.726-0.285-5.354-1.199-7.762-2.467C292.836,137.701,290.636,136.046,288.789,134.056z M298.174,144.322
			c-1.18-1.141-2.178-2.457-2.897-3.911c1.213,1.077,2.397,2.105,3.65,3.02c1.256,0.908,2.558,1.726,3.938,2.418
			c1.365,0.719,2.798,1.322,4.251,1.925c1.456,0.595,2.943,1.16,4.417,1.838c-1.62-0.071-3.214-0.326-4.783-0.727
			c-1.571-0.391-3.108-0.964-4.574-1.706C300.723,146.417,299.347,145.474,298.174,144.322z M317.294,221.842
			c-0.573,2.54-1.395,4.197-3.044,6.072c0.034-0.195,0.068-0.39,0.104-0.582c1.147-6.008,1.913-11.959,3.235-17.722
			C317.546,214.71,317.458,221.114,317.294,221.842z M312.571,171.945c-1.693-0.845-3.223-2.069-4.413-3.609
			c-1.176-1.592-1.852-3.355-2.376-5.141c-0.259-0.896-0.448-1.813-0.567-2.74c-0.097-0.925-0.144-1.889,0.096-2.791
			c0.208,1.824,0.91,3.487,1.571,5.146c0.36,0.819,0.708,1.641,1.123,2.421c0.401,0.791,0.82,1.536,1.347,2.201
			c1.023,1.363,2.351,2.519,3.808,3.503c1.469,0.976,3.07,1.781,4.793,2.449C316.101,173.327,314.256,172.796,312.571,171.945z"/>
	</g>
	<polygon points="471.62,34.596 459.872,34.596 459.872,34.39 444.862,34.39 444.862,34.596 28.377,34.596 28.377,48.312 
		40.125,48.312 40.125,477.612 55.135,477.612 55.135,48.312 444.862,48.312 444.862,477.612 459.872,477.612 459.872,48.312 
		471.62,48.312 	"/>
	<path d="M474.352,199.654c-0.118-0.5-0.435-0.872-0.789-1.212c-1.138-1.092-2.549-1.486-4.054-1.284
		c-0.831,0.112-1.251-0.04-1.61-0.8c-0.463-0.981-1.199-1.715-2.379-1.823c-0.998-0.092-1.325-0.875-1.732-1.583
		c1.698-1.393,1.754-1.428,2.715,0.12c0.807,1.3,1.926,1.782,3.364,1.596c0.968-0.125,1.934-0.314,2.876-0.564
		c1.238-0.329,1.536-0.824,1.024-1.967c-0.454-1.014-0.805-2.061-1.229-3.078c-0.53-1.274-1.437-2.194-3.019-2.189
		c-0.969,0.003-1.94-0.185-2.908-0.307c-0.466-0.059-0.769-0.353-0.825-0.815c-0.052-0.431,0.293-0.567,0.632-0.696
		c0.783-0.298,1.567-0.596,2.338-0.926c0.55-0.236,1.064-0.648,0.754-1.278c-0.52-1.057-1.141-2.074-1.811-3.045
		c-0.726-1.053-1.846-1.264-3.408-0.873c2.294-1.861,1.133-2.615-0.594-3.716c0.98-0.477,2.166-0.277,3.065-1.15
		c0.998-0.969,0.507-2.155,0.599-3.19c0.537-0.106,0.83,0.117,1.157,0.224c1.313,0.428,1.769,0.146,1.899-1.24
		c0.045-0.476-0.055-0.968-0.118-1.449c-0.077-0.6-0.582-1.133-0.302-1.775c0.078-0.059,0.129-0.132,0.186-0.136
		c0.205-0.018,0.413-0.014,0.62-0.018c1.443-0.026,1.886-0.559,1.524-1.912c-0.261-0.974-0.82-1.736-1.666-2.334
		c-0.621-0.439-1.303-2.961-0.834-3.398c1.319-1.225,0.76-2.111-0.193-3.174c-0.615-0.686-0.907-1.354,0.209-2.216
		c1.731-1.338,1.236-3.855-0.654-5.068c-1.36-0.873-3.19-1.122-3.947-2.844c-0.048-0.11-0.213-0.229-0.331-0.238
		c-1.681-0.122-1.916-1.668-2.606-2.714c-0.69-1.046-0.531-1.415,0.732-1.782c1.499-0.436,2.884-1.082,4.148-1.964
		c1.88-1.312,1.79-3.105-0.147-4.372c-0.627-0.41-1.46-0.467-2.047-1.185c0.872-0.847,1.843-1.533,2.562-2.47
		c1.025-1.336,0.956-2.565-0.278-3.686c-0.358-0.326-0.814-0.542-1.189-0.852c-0.427-0.355-0.563-0.83-0.207-1.297
		c0.737-0.965,1.255-2.004,1.37-3.232c0.035-0.369,0.359-0.545,0.642-0.767c1.188-0.929,1.219-1.813,0.184-2.876
		c-0.527-0.541-1.292-0.717-1.984-1.192c0.854-0.331,0.907-0.999,1.116-1.584c0.273-0.765,1.223-0.619,1.655-1.182
		c0.229-0.298,0.27-0.653,0.175-0.994c-0.334-1.208-0.596-2.449-1.069-3.602c-0.636-1.551-1.697-1.917-3.217-1.276
		c-0.316,0.133-0.569,0.416-0.886,0.544c-1.119,0.455-1.666-0.021-1.512-1.228c0.152-1.191,0.663-2.278,0.92-3.432
		c0.655-2.932,0.667-6.096,3.161-8.327c0.049-0.044,0.075-0.118,0.105-0.18c0.758-1.588,0.777-3.227,0.383-4.91
		c-0.296-1.264-0.969-2.015-2.279-2.435c-1.088-0.349-1.266-1.359-0.725-2.39c0.259-0.494,0.582-0.957,0.812-1.464
		c1.051-2.313,0.888-2.792-1.407-4.032c-0.696-0.376-1.041-0.97-1.043-1.688c-0.002-0.82,0.758-0.906,1.35-1.067
		c1.427-0.387,2.774-0.95,4.024-1.74c2.113-1.335,2.465-3.405,0.872-5.33c-1.516-1.83-3.028-3.666-5.222-4.766
		c-0.646-0.323-1.129-0.827-1.139-1.63c-0.022-1.734-0.692-3.276-1.519-4.739c-0.4-0.708-0.378-1.232,0.04-1.915
		c0.441-0.719,0.658-1.587,0.339-2.418c-0.564-1.468-0.623-3.174-2.086-4.233c-0.581-0.42-0.547-1.046,0.255-1.205
		c1.072-0.214,1.291-0.88,1.284-1.819c-0.009-1.296,0.509-2.545,1.2-3.495c0.863-1.185,1.857-2.495,3.528-2.755
		c0.715-0.111,0.936-0.513,0.849-1.17c-0.124-0.945-0.25-1.889-0.38-2.867c0.309-0.014,0.515-0.047,0.717-0.028
		c1.697,0.161,2.218-0.424,1.911-2.103c-0.108-0.59-0.678-1.09-0.363-1.78c0.636-0.304,1.663,0.249,1.921-0.839
		c0.215-0.906-0.173-1.639-0.776-2.274c-0.19-0.201-0.425-0.361-0.649-0.528c-0.341-0.256-0.598-0.55-0.748-0.973
		c-0.581-1.643-1.877-2.146-3.473-2.013c-0.563,0.047-1.069,0.095-1.63-0.101c-2.12-0.742-2.128-0.719-3.146,1.244
		c-0.105,0.202-0.233,0.329-0.462,0.118c-0.15-0.523,0.161-0.947,0.388-1.354c0.968-1.735,0.715-3.277-1.705-4.641
		c-0.601-0.339-1.039-0.231-1.469,0.258c-0.473,0.539-0.74,1.174-0.966,1.841c-0.264,0.778-1.254,1.332-1.542,0.853
		c-0.725-1.206-2.113-1.288-2.907-2.153c-0.886-0.965-1.667-1.381-2.894-0.709c-0.881,0.482-1.452,0.052-1.767-0.825
		c-0.118-0.328-0.234-0.666-0.412-0.962c-0.513-0.852-0.948-1.422-2.291-1.181c-1.494,0.267-3.589,1.269-4.395-1.307
		c-0.033-0.106-0.225-0.243-0.329-0.233c-1.599,0.16-1.633-1.056-1.984-2.11c-0.543-1.633-2.142-2.273-3.719-1.567
		c-0.898,0.402-1.683,1.005-2.392,1.682c-0.737,0.703-1.512,0.863-2.482,0.528c-2.388-0.823-4.787-0.812-7.16,0.096
		c-0.764,0.292-1.537,0.352-2.201-0.152c-1.209-0.916-2.318-1.213-3.333,0.241c-0.035,0.05-0.118,0.074-0.184,0.095
		c-1.395,0.466-2.009,1.419-1.833,2.889c0.052,0.432-0.038,1.048-0.552,0.893c-1.421-0.43-2.648,0.083-4.097,0.819
		c0.206-1.421,0.1-2.561-0.809-3.342c-1.025-0.88-1.761-1.973-2.564-3.026c-0.906-1.188-2.044-2.061-3.447-2.64
		c-2.625-1.083-3.348-0.914-4.868,1.406c-0.188,0.288-0.27,0.736-0.699,0.623c-2.044-0.54-2.516,0.956-3.033,2.336
		c-0.576,1.54-1.702,1.889-2.969,0.777c-0.63-0.553-1.2-1.163-1.964-1.545c-0.317-0.159-0.482-0.428-0.621-0.783
		c-0.767-1.975-2.431-2.845-4.403-2.255c-0.634,0.19-1.177,0.366-1.781-0.021c-1.375-0.882-2.709-1.129-3.935,0.704
		c0.462-3.941,0.027-4.852-2.558-6.281c-0.782-0.432-1.258-0.327-1.761,0.359c-0.915,1.248-1.191,2.683-1.244,4.215
		c-0.388-1.358-1.326-2.205-2.525-2.349c-1.242-0.15-1.642,1.064-2.059,2.033c-0.082,0.19-0.195,0.371-0.319,0.538
		c-0.258,0.347-0.609,0.699-1.028,0.633c-0.821-0.131-1.625-0.381-2.427-0.615c-0.626-0.183-0.721-0.798-0.969-1.287
		c-0.158-0.311-0.326-0.62-0.527-0.903c-0.885-1.246-1.155-1.331-2.559-0.723c-0.653,0.283-1.303,0.673-1.906-0.011
		c-0.774-0.88-1.458-0.448-2.196,0.04c-0.848,0.56-1.262,1.399-1.534,2.613c-0.674-1.23-1.402-2.082-2.617-1.588
		c-1.143,0.465-1.486,0.061-1.679-0.998c-0.126-0.693-0.523-1.384-1.35-1.382c-0.748,0.002-1.458,0.487-1.565,1.185
		c-0.211,1.363-1.211,1.702-2.218,1.786c-1.186,0.098-2.06,0.635-3.04,1.203c-1.763,1.022-3.551,2.373-5.798,1.009
		c-0.459-0.278-1.081-0.197-1.648-0.126c-0.831,0.104-1.669,0.171-2.505,0.221c-1.411,0.085-1.51-0.01-1.627-1.463
		c-0.039-0.487-0.01-0.983-0.087-1.463c-0.336-2.09-1.808-2.778-3.668-1.718c-0.735,0.418-1.343,1-1.919,1.613
		c-1.519,1.616-1.518,1.617-3.262,0.119c-1.461-1.254-3.004-0.968-3.991,0.73c-0.303,0.522-0.324,1.205-0.86,1.586
		c-0.098-0.037-0.184-0.042-0.217-0.086c-0.124-0.166-0.235-0.342-0.344-0.519c-0.799-1.292-1.714-2.257-3.404-1.357
		c-0.622,0.331-1.047-0.122-1.464-0.502c-0.937-0.854-2.017-1.498-3.118-2.109c-3.793-2.104-7.837-1.002-10.058,2.755
		c-0.456,0.772-1.148,1.29-1.945,1.442c-0.61,0.116-0.675-0.785-1.087-1.137c-0.105-0.09-0.187-0.207-0.283-0.308
		c-0.701-0.739-1.399-1.19-2.252-0.159c-0.437,0.529-1.009,0.789-1.641,0.264c-0.874-0.727-1.403-0.097-1.92,0.485
		c-0.784,0.881-0.985,1.956-1.07,3.103c-0.069,0.931-1.03,1.624-1.515,1.127c-1.244-1.273-3.237-1.316-4.291-2.884
		c-1.107-1.646-2.867-2.377-4.712-2.926c-1.173-0.349-2.226-0.276-3.054,0.706c-0.556,0.66-1.037,0.825-1.702,0.114
		c-0.951-1.017-2.075-0.841-3.004-0.055c-0.758,0.641-1.54,0.85-2.531,0.814c0.059-0.549,0.161-1.087,0.164-1.626
		c0.009-1.373-0.952-3.094-1.816-3.328c-0.76-0.206-2.395,1.071-2.824,2.428c-0.268,0.846-0.643,1.326-1.517,1.468
		c-0.327,0.053-0.721,0.215-0.918,0.461c-0.621,0.777-1.329,1.034-2.348,0.968c-1.102-0.071-2.247,0.539-2.549,1.528
		c-0.389,1.272-1.338,1.848-2.098,2.707c-1.466-1.69-2.768-1.638-4.039,0.089c-0.163,0.222-0.245,0.502-0.385,0.742
		c-0.595,1.016-1.721,0.751-2.605,0.979c-0.722,0.186-0.698-0.706-0.94-1.165c-0.78-1.476-1.179-1.609-2.603-0.741
		c-0.467,0.285-0.814,0.755-1.483,0.47c-1.44-0.614-3.118-0.738-3.987-2.405c-0.411-0.788-1.282-1.276-2.081-1.717
		c-1.475-0.814-2.943-0.354-3.666,1.171c-0.235,0.496-0.313,1.067-0.453,1.606c-0.091,0.351-0.27,0.838-0.624,0.685
		c-1.318-0.57-1.83,0.716-2.798,1.327c0.139-1.01,0.278-1.758,0.338-2.513c0.078-0.975-0.313-1.744-1.095-2.358
		c-1.963-1.543-2.396-1.517-3.58,0.678c-0.46,0.853-0.953,1.064-1.832,0.857c-1.102-0.26-1.871,0.283-2.463,1.178
		c-0.26,0.393-0.328,0.937-0.836,1.143c-0.136-0.048-0.277-0.068-0.382-0.142c-0.723-0.507-0.871-2.05-2.174-1.446
		c-0.862,0.4-1.567,1.168-2.076,2.027c-0.419,0.708-0.38,1.453-0.159,2.229c0.162,0.567,0.646,1.057,0.531,1.804
		c-0.978-0.398-1.255-1.14-1.53-1.96c-0.577-1.72-1.604-2.322-3.363-1.976c-0.673,0.132-1.306,0.473-1.953,0.727
		c-0.456,0.179-0.915,0.426-1.379,0.052c-1.552-1.249-3.305-2.329-4.581-3.816c-1.106-1.288-2.255-1.963-3.876-2.096
		c-2.264-0.186-4.464,0.033-6.602,0.814c-0.722,0.263-1.448,0.587-2.197,0.071c-0.865-0.596-1.524-0.165-1.91,0.559
		c-0.551,1.034-0.991,2.046-2.421,1.191c-1.021,0.529-1.975,0.338-2.953-0.177c-0.244-0.129-0.677,0.041-1.002,0.14
		c-0.586,0.179-0.993,0.986-1.653,0.729c-0.684-0.267-0.255-1.141-0.585-1.669c-0.336-0.539-0.635-1.161-1.32-1.244
		c-0.716-0.087-1.071,0.548-1.494,1c-0.524,0.561-0.328,1.308-0.468,2.009c-0.717,0.107-1.406,0.19-2.088,0.317
		c-0.683,0.127-1.18,0.924-1.908,0.728c-0.823-0.222-0.507-1.219-0.932-1.757c-0.661-0.838-1.627-2.008-2.437-1.703
		c-1.318,0.496-2.813,0.791-3.941,1.801c-0.554,0.497-0.797,1.502-1.675,1.439c-0.83-0.06-1.041-1.037-1.556-1.574
		c-1.553-1.618-2.257-1.668-3.71-0.048c-1.165,1.3-1.165,1.3-2.442,0.01c-1.242-1.254-1.67-1.309-2.604,0.051
		c-0.598,0.871-1.141,1.145-2.056,0.618c-0.303-0.174-0.639-0.338-0.996-0.234c-0.971,0.285-1.384-0.341-1.812-1.024
		c-0.597-0.95-1.303-1.816-2.202-2.504c-0.393-0.302-0.889-0.695-1.308-0.272c-0.943,0.954-1.811,1.07-2.821,0.13
		c-0.26-0.242-0.691,0.034-0.999-0.014c-1.398-0.219-2.236,0.901-3.365,1.299c-1.263,0.445-2.335,1.002-3.174,2.187
		c-1.529,2.16-3.437,2.341-5.519,0.748c-0.497-0.381-0.985-0.546-1.543-0.283c-0.686,0.323-0.909,0.013-1.247-0.579
		c-0.941-1.648-2.267-1.684-3.371-0.1c-0.464,0.665-0.768,1.206-1.543,0.395c-0.639-0.668-1.263-0.297-1.888,0.06
		c-0.733,0.418-1.174,1.099-1.586,2.129c-0.766-1.304-1.55-1.268-2.436-0.597c-0.403,0.305-0.898,0.43-1.367,0.096
		c-0.749-0.534-1.756-0.607-2.429-1.042c-0.823-0.531-0.199-1.816-0.366-2.756c-0.024-0.137-0.019-0.28-0.044-0.417
		c-0.339-1.859-1.474-2.623-3.31-2.217c-0.611,0.135-1.228,0.473-1.819,0.425c-1.915-0.153-2.942,0.988-3.868,2.38
		c-0.286,0.43-0.332,1.061-0.948,1.26c-0.611-0.778-1.072-1.884-2.203-1.702c-1.043,0.168-1.172,1.261-1.391,2.142
		c-0.103,0.414-0.253,1.003-0.729,0.818c-1.27-0.494-2.951-0.027-3.705-1.817c-0.497-1.18-1.729-1.795-2.923-2.255
		c-1.124-0.434-2.059-0.095-2.703,0.91c-0.352,0.55-0.415,1.171-0.458,1.805c-0.173,2.569-0.179,2.569-2.757,3.227
		c-0.135,0.035-0.279,0.051-0.405,0.107c-1.03,0.455-1.7,0.082-2.253-0.842c-0.725-1.213-1.691-2.241-2.917-2.957
		c-1.249-0.729-2.302-0.364-2.933,0.933c-0.344,0.708-0.45,1.477-0.409,2.248c0.059,1.106-0.362,1.544-1.493,1.331
		c-0.466-0.088-0.985-0.039-1.455,0.062c-1.84,0.397-3.601-1.024-5.481-0.218c-0.21,0.09-0.687-0.396-1.017-0.645
		c-0.33-0.25-0.676-0.704-1.081-0.414c-0.887,0.634-1.159,0.105-1.521-0.586c-0.351-0.67-0.766-1.422-1.674-1.379
		c-1.315,0.062-2.782,1.954-2.673,3.299c0.045,0.557,0.487,1.015,0.296,1.95c-1.081-1.403-2.127-0.771-3.16-0.151
		c-0.53,0.318-0.881,0.282-1.148-0.337c-0.161-0.374-0.399-0.744-0.689-1.027c-0.958-0.93-1.738-0.895-2.264,0.341
		c-0.421,0.988-1.246,1.323-1.985,1.7c-1.527,0.778-3.496,0.76-4.412,2.602c-0.069,0.139-0.36,0.206-0.559,0.237
		c-1.475,0.227-1.986,1.42-2.525,2.549c-0.39,0.816-0.364,1.771-0.802,2.592c-0.346,0.65-0.359,1.308,0.108,1.971
		c0.452,0.641,0.658,1.316,0.261,2.146c-0.767,1.605-0.808,1.835,0.704,2.615c1.524,0.787,1.862,1.943,1.783,3.405
		c-0.047,0.863,0.353,1.303,1.114,1.519c0.336,0.096,0.7,0.121,1.012,0.264c1.088,0.497,1.2,1.215,0.342,2.098
		c-0.384,0.395-1.022,0.598-1.135,1.189c-0.231,1.206-1.173,1.583-2.092,2.132c-1.797,1.073-3.487,2.303-4.057,4.531
		c-0.224,0.877-0.157,1.501,0.813,1.807c0.959,0.303,1.795,0.917,2.851,1.039c-0.128,0.201-0.175,0.348-0.275,0.419
		c-0.312,0.224-0.669,0.08-1.011,0.095c-2.237,0.098-2.806,0.794-2.505,3c0.027,0.197-0.028,0.408-0.057,0.611
		c-0.269,1.849-0.27,1.849,1.495,2.261c0.145,1.51-1.168,1.713-2.06,2.276c-1.785,1.127-1.898,2.482-0.285,3.847
		c0.586,0.496,1.257,0.897,1.808,1.426c0.58,0.556,0.915,1.313,0.557,2.088c-0.405,0.877-1.168,0.491-1.835,0.316
		c-0.405-0.106-0.812-0.226-1.225-0.279c-2.282-0.295-4.474-0.141-6.356,1.395c-1.478,1.207-1.497,2.653-0.01,3.858
		c0.539,0.436,1.16,0.778,1.769,1.117c0.548,0.305,1.15,0.515,1.694,0.824c1.08,0.614,1.108,1.675,1.124,2.748
		c0.017,1.14-0.912,0.793-1.495,1.003c-1.072,0.384-1.416,1.067-1.14,2.333c0.34,1.563,1.226,2.811,2.394,3.853
		c0.562,0.501,0.855,0.99,0.792,1.797c-0.178,2.3,0.706,4.224,2.314,5.842c0.246,0.247,0.512,0.489,0.696,0.78
		c0.422,0.664,0.382,1.326-0.164,1.916c-0.518,0.56-0.986,0.428-1.652,0.088c-2.281-1.167-3.36-0.633-4.503,1.583
		c-0.884,1.713-0.796,3.737-1.944,5.341c-0.303,0.424-0.133,1.04,0.343,1.287c0.751,0.391,0.477,0.747,0.222,1.318
		c-0.545,1.223-0.409,1.616,0.78,1.772c1.012,0.133,1.322,0.553,1.638,1.464c0.248,0.715,0.485,1.433,0.678,2.167
		c0.139,0.532,0.159,1.174,0.831,1.336c1.051,0.255,1.141,1.035,1.236,1.918c0.156,1.46,0.36,2.938,1.549,4
		c0.348,0.311,0.304,0.591,0.078,0.902c-0.87,1.201-1.035,2.562-0.948,3.991c0.03,0.491-0.006,0.984-0.31,1.406
		c-0.784,1.089-1.225,2.35-1.75,3.562c-0.344,0.794-0.916,1.422-1.693,1.344c-2.311-0.231-3.093,1.578-4.185,2.949
		c-0.496,0.623-0.758,1.461,0.291,1.885c0.653,0.264,0.559,0.669,0.478,1.172c-0.149,0.923,0.045,1.568,1.104,1.913
		c0.876,0.285,0.906,1.342,1.184,2.092c0.2,0.539-0.451,0.786-0.813,1.089c-1.326,1.109-0.675,2.742-1.073,4.098
		c-0.075,0.257,0.178,0.588,0.471,0.595c1.727,0.04,1.461,0.956,1.053,2.107c-0.258,0.729-0.252,1.677,0.67,1.946
		c0.936,0.272,0.989,0.815,0.917,1.567c-0.16,1.669,0.404,3.157,1.139,4.613c0.343,0.679,1.141,1.259,0.997,2.018
		c-0.164,0.861-1.273,0.678-1.875,1.117c-0.112,0.082-0.247,0.131-0.364,0.207c-1.371,0.888-1.494,1.989-0.315,3.076
		c0.357,0.329,0.817,0.544,1.177,0.87c0.82,0.741,0.798,1.225-0.163,1.742c-0.931,0.502-1.822,1.053-2.576,1.783
		c-1.386,1.342-1.124,2.666,0.692,3.37c0.773,0.3,1.62,0.411,2.438,0.589c0.491,0.107,1.046,0.209,1.139,0.768
		c0.275,1.654,1.325,2.851,2.583,4.227c-1.698-0.028-3.154,0.175-3.854,1.526c-0.346,0.667-0.783,1.051-1.3,1.507
		c-1.04,0.918-1.456,2.463-3.071,2.849c-0.47,0.113-0.679,0.866-0.807,1.41c-0.177,0.749-0.423,1.462-0.711,2.178
		c-0.509,1.267-0.284,1.809,1.107,2.121c1.343,0.301,2.333,1.009,3.273,1.947c-0.614,0.275-1.131-0.108-1.681-0.117
		c-1.195-0.02-2.19,0.396-2.975,1.284c-0.5,0.565-0.649,1.218-0.343,1.945c0.281,0.667,0.783,1.018,1.487,0.867
		c0.975-0.21,1.391,0.342,1.769,1.079c0.422,0.823,1.118,0.932,1.963,0.707c0.931-0.248,1.782-0.794,2.918-0.832
		c0.084,1.778,1.768,2.827,1.867,4.603c0.034,0.609,0.593,0.678,1.125,0.653c0.557-0.027,0.741,0.286,0.616,0.797
		c-0.116,0.474-0.248,0.944-0.383,1.413c-0.484,1.679-0.486,1.679,1.27,2.379c0.202,0.08,0.368,0.192,0.407,0.479
		c-0.34,0.807-0.938,1.494-1.49,2.207c-0.707,0.913-0.862,1.935-0.419,2.958c0.376,0.87,1.408,1.733,1.292,2.465
		c-0.12,0.764-1.342,1.304-1.945,2.053c-1.352,1.68-0.886,3.153,1.154,3.882c0.261,0.093,0.542,0.132,0.812,0.201
		c1.307,0.333,2.616,0.41,3.943,0.104c0.335-0.077,0.793-0.119,0.866,0.311c0.108,0.635-0.453,0.561-0.846,0.595
		c-0.277,0.024-0.559-0.007-0.838,0.002c-0.901,0.032-1.623,0.551-1.539,1.38c0.147,1.457-0.761,2.284-1.472,3.283
		c-1.637,2.301-1.623,2.311,0.863,3.44c0.127,0.058,0.263,0.096,0.391,0.15c0.276,0.118,0.477,0.305,0.421,0.63
		c-0.051,0.299-0.269,0.511-0.544,0.577c-0.403,0.098-0.822,0.127-1.236,0.18c-0.709,0.091-1.367,0.312-1.885,0.823
		c-0.373,0.368-0.688,0.985-0.184,1.25c0.989,0.521,0.507,1.514,0.819,2.008c0.63,0.994,0.845,1.928,0.873,3.023
		c0.005,0.194,0.363,0.381,0.562,0.566c1.149,1.072,1.855,2.24,0.958,3.837c-0.443,0.79-0.309,1.37,0.563,1.893
		c1.25,0.749,1.167,0.81,0.55,2.118c-0.357,0.757-0.884,1.136-1.67,1.419c-1.911,0.689-3.508,2.827-3.727,4.762
		c-0.043,0.384-3.258,5.292-3.591,5.438c-0.382,0.168-0.797,0.265-1.17,0.449c-0.503,0.248-1.086,0.541-1.21,1.094
		c-0.184,0.816-0.714,1.291-1.246,1.852c-1.513,1.597-1.178,2.734,0.994,3.352c-0.107,0.327-0.223,0.648-0.317,0.976
		c-0.681,2.361-0.191,2.935,2.142,2.517c0.223,0.271,0,0.518-0.032,0.779c-0.209,1.68,0.216,2.171,1.97,2.103
		c0.507-0.02,0.796,0.174,1.059,0.498c0.395,0.485,0.848,0.701,1.467,0.475c0.584-0.213,0.939,0.141,1.209,0.568
		c0.368,0.582,0.979,0.855,1.741,1.202c-2.662,1.056-4.981,2.112-5.969,4.841c-0.33,0.911-0.505,1.597,0.57,2.044
		c0.454,0.189,0.877,0.432,1.147,0.875c0.331,0.544,0.547,1.055-0.363,1.217c-0.707,0.126-1.336,0.4-1.848,0.913
		c-0.361,0.361-0.619,0.775-0.469,1.308c0.142,0.505,0.602,0.483,1.01,0.57c1.393,0.295,1.413,0.307,1.245,1.857
		c-0.065,0.605-0.092,1.291,0.601,1.333c1.356,0.082,1.774,0.814,1.86,2.009c0.032,0.444,0.541,0.606,0.822,0.907
		c1.148,1.232,0.918,2.002-0.702,2.408c-1.651,0.414-2.019,1.237-1.18,2.73c0.237,0.421,0.502,0.921,0.891,1.144
		c2.159,1.238,3.323,3.555,5.661,4.93c-1.123,0.934-0.754,2.231-1.131,3.344c-0.868,2.567-0.445,3.895,1.655,5.432
		c0.225,0.165,0.492,0.275,0.703,0.454c0.939,0.798,0.745,2.172-0.438,2.366c-1.098,0.181-1.606,0.673-1.799,1.684
		c-0.146,0.764-0.83,1.088-1.345,1.543c-1.181,1.043-2.081,2.256-2.393,3.84c-0.421,2.143,0.638,3.245,2.794,2.846
		c1.54-0.285,2.95-0.857,3.993-2.113c0.231-0.278,0.561-0.488,0.902-0.222c0.2,0.157,0.364,0.438,0.413,0.689
		c0.08,0.409-0.195,0.688-0.584,0.694c-1.427,0.021-1.959,0.75-1.943,2.131c0.005,0.425-0.41,0.861-0.649,1.283
		c-0.275,0.486-0.62,0.939-0.843,1.446c-0.617,1.405-0.28,2.226,1.118,2.844c0.444,0.197,1.147,0.25,1.304,0.576
		c0.557,1.155,0.549,2.362,0.033,3.605c-0.439,1.056-1.143,1.313-2.155,1.141c-1.721-0.292-3.34,0.053-4.875,0.826
		c-1.568,0.789-2.033,2.372-1.096,3.855c0.328,0.519,0.822,0.943,1.28,1.367c0.818,0.758,1.845,1.361,2.458,2.252
		c0.795,1.156,1.722,1.312,2.889,0.977c1.091-0.314,2.176-0.382,3.264-0.225c0.053,0.251-0.036,0.305-0.199,0.372
		c-1.714,0.703-1.7,0.692-0.376,1.932c0.432,0.405,0.501,0.784-0.212,1.09c-1.99,0.853-2.019,0.993-0.715,2.728
		c0.34,0.452,0.851,0.892,0.598,1.47c-0.805,1.839-0.805,3.974-2.112,5.63c-0.477,0.604-0.917,1.289-0.412,2.1
		c0.222,0.357,0.156,0.642-0.062,0.951c-0.514,0.727-0.198,1.131,0.527,1.42c1.061,0.424,1.18,1.229,0.899,2.232
		c-0.245,0.875-0.381,1.773-0.294,2.694c0.223,2.365,0.733,2.815,3.118,2.746c0.1-0.003,0.205,0.144,0.412,0.3
		c-0.399,0.719-1.221,0.84-1.819,1.238c-2.586,1.72-4.354,3.934-4.316,7.202c0.024,2.053,1.311,2.988,3.185,2.251
		c1.63-0.641,3.176-1.468,4.024-3.167c0.24-0.479,0.437-1.04,0.984-1.289c0.084,0.023,0.177,0.02,0.209,0.062
		c0.165,0.219,0.319,0.447,0.467,0.678c0.652,1.021,1.257,3.315,1.195,4.515c-0.079,1.514,0.566,2.182,2.111,2.157
		c0.346-0.006,0.692-0.14,1.035-0.127c0.54,0.02,0.66,0.437,0.664,0.884c0.004,0.47-0.113,0.704-0.725,0.698
		c-1.61-0.016-2.071,0.381-2.479,1.848c-0.229,0.821-0.251,1.663-0.109,2.494c0.157,0.916,0.525,1.752,1.319,2.304
		c0.794,0.552,1.417,0.109,2.078-0.361c0.639-0.456,1.012,0.194,1.412,0.522c0.453,0.373,0.163,0.709-0.125,1.055
		c-0.31,0.374-0.579,0.786-0.833,1.201c-0.449,0.734-0.33,1.312,0.489,1.707c0.264,0.127,0.676,0.131,0.693,0.584
		c-0.355,0.081-0.72,0.101-1.025,0.246c-1.22,0.582-1.283,1.079-0.304,1.972c0.573,0.523,1.154,0.928,1.996,1.013
		c1.393,0.141,1.318,1.866,2.389,2.431c0.137,0.072-0.139,0.331-0.3,0.447c-0.972,0.698-0.664,1.165,0.217,1.675
		c0.541,0.313,1.609,0.693,0.963,1.492c-0.661,0.818-0.235,2.158-0.218,3.084c0.004,0.2,0,0.396-0.003,0.589
		c-0.086,0.212-0.224,0.416-0.445,0.609c-0.174,0.151,0.108,0.523,0.359,0.668c0.126,0.073,0.251,0.149,0.377,0.226
		c0.15,0.233,0.37,0.447,0.714,0.628c-0.353,0.029-0.468,0.543-0.272,0.839c0.195,0.296,0.551,0.431,0.868,0.59
		c0.317,0.159,0.645,0.408,0.673,0.761c0.047,0.599-0.74,0.895-1,1.436c-0.431,0.897,0.725,1.77,0.846,2.757
		c0.063,0.515-0.166,1.015-0.281,1.52c-0.211,0.92-0.033,1.922,0.48,2.713c0.136,0.21,0.309,0.415,0.548,0.488
		c0.431,0.132,0.883-0.248,0.999-0.683c0.117-0.435-0.006-0.895-0.127-1.329c0.743,0.149,1.655,0.241,2.123-0.355
		c0.822-1.047-0.79-2.643-0.197-3.835c0.604-0.069,1.229-0.144,1.754-0.451c0.525-0.307,0.928-0.911,0.805-1.507
		c0.834-0.034,1.625-0.585,1.945-1.356c0.074-0.178,0.115-0.366,0.139-0.557c0.018,0.007,0.039,0.011,0.056,0.018
		c1.041,0.446,1.723-0.254,2.449-0.753c0.839-0.576,0.782-1.219-0.05-1.728c-0.476-0.291-1.103-0.136-1.702-0.444
		c0.041-0.11,0.083-0.219,0.137-0.324c0.738-0.06,1.383-0.004,1.924-0.374c1.497-1.022,2.425-3.585,2.003-5.463
		c-0.06-0.267-0.186-0.582-0.102-0.807c0.35-0.94-0.076-1.494-0.676-2.202c-0.601-0.709,0.971-1.242,0.53-2.188
		c-0.294-0.629-0.463-1.314-0.924-1.863c-0.404-0.481-0.83-0.949-1.179-1.468c-0.582-0.864-1.265-1.87-0.995-2.85
		c0.34-1.237,0.051-2.377-0.529-3.185c-1.444-2.011-0.432-3.889,0.32-5.504c0.785-1.687,0.945-3.138,0.327-4.779
		c-0.313-0.83-0.657-1.646-0.501-2.631c0.656,0.095,1.204,0.228,1.755,0.242c1.206,0.031,1.82-0.737,1.52-1.885
		c-0.199-0.762-0.623-1.407-1.239-1.902c-0.923-0.741-1.869-1.451-3.053-1.691c0.413-2.595,0.252-3.148-1.532-5.386
		c-0.773-0.969-0.895-2.316-0.308-3.279c0.158-0.259,0.371-0.455,0.665-0.332c0.155,0.065,0.327,0.296,0.339,0.464
		c0.061,0.835,0.009,1.681,0.113,2.509c0.246,1.961,1.589,2.625,3.291,1.617c1.553-0.92,2.638-2.258,3.279-3.957
		c0.369-0.977,0.733-1.94,1.629-2.626c0.652-0.499,0.841-1.301,0.702-2.094c-0.331-1.884-0.924-3.668-2.373-5.024
		c-0.866-0.811-1.742-1.616-2.669-2.354c-0.721-0.574-0.98-1.173-0.41-1.961c0.429-0.592,0.705-1.24,0.568-1.958
		c-0.19-0.993,0.155-1.703,0.811-2.444c0.968-1.094,0.896-1.315-0.121-2.454c-1.023-1.146-1.024-1.965,0.064-3.033
		c0.652-0.64,1.416-1.071,2.324-1.346c1.751-0.532,2.056-1.572,1.152-3.204c-0.993-1.792-2.617-2.642-4.487-3.172
		c-0.518-0.147-1.276,0.005-1.461-0.617c-0.207-0.698,0.545-0.856,0.994-1.138c0.89-0.557,1.234-1.367,0.894-2.335
		c-0.406-1.156,0.058-1.847,0.979-2.448c1.314-0.857,2.386-1.925,2.85-3.495c0.245-0.828,0.504-1.699-0.167-2.378
		c-0.891-0.901-0.994-1.898-0.852-3.076c0.081-0.669-0.133-1.38-0.257-2.065c-0.278-1.526-0.289-1.524,1.137-2.11
		c0.194-0.08,0.396-0.143,0.58-0.24c1.186-0.627,1.382-1.527,0.509-2.536c-0.409-0.473-0.933-0.845-1.356-1.307
		c-0.317-0.346-0.787-0.717-0.528-1.26c0.292-0.614,0.848-0.304,1.297-0.204c1.054,0.235,2.08,0.192,3.085-0.217
		c1.134-0.461,1.041-1.588,1.162-2.673c2.371,1.906,4.841,2.334,7.504,1.768c2.093-0.445,2.57-1.883,1.174-3.506
		c-1.814-2.11-4.225-2.925-6.915-2.903c-1.53,0.013-2.763,0.719-3.296,2.317c-2.061-2.032-2.059-2.033-2.714-4.559
		c-0.069-0.268-0.164-0.537-0.294-0.781c-0.919-1.715-0.914-1.705,0.342-3.219c0.493-0.594,0.982-1.177,1.644-1.598
		c0.763-0.486,1.277-1.127,0.979-2.096c-0.237-0.768,0.118-1.17,0.741-1.503c1-0.534,1.841-1.284,2.539-2.161
		c1.009-1.269,0.727-2.52-0.71-3.297c-0.873-0.472-1.857-0.561-2.822-0.731c-0.995-0.175-2.347,0.649-2.903-0.33
		c-0.444-0.783-0.135-2.024-0.065-3.056c0.042-0.615,0.15-1.281,0.439-1.81c0.316-0.579,1.024-0.221,1.553-0.314
		c1.089-0.19,1.412-0.738,1.029-1.779c-0.394-1.07-1.266-1.595-2.259-2.037c-1.507-0.671-1.528-1.553-0.253-2.556
		c1.701-1.338,3.967-1.974,5.046-4.107c0.265-0.523,0.94-0.551,1.506-0.585c1.163-0.069,2.182-0.33,2.759-1.526
		c0.198-0.411,0.656-0.709,1.027-1.022c1.257-1.063,1.31-1.094,0.278-2.477c-0.429-0.575-0.568-1.068-0.356-1.725
		c0.15-0.464,0.253-0.945,0.343-1.425c0.612-3.264,0.417-3.678-2.454-5.312c-0.121-0.069-0.23-0.158-0.34-0.245
		c-0.768-0.611-1.546-0.544-2.322-0.026c-0.347,0.232-0.661,0.521-1.024,0.723c-0.493,0.275-1.056,0.256-1.177-0.359
		c-0.245-1.246-0.997-2.564,0.251-3.73c0.148-0.138,0.253-0.339,0.334-0.53c0.358-0.847,0.726-1.713,0.066-2.572
		c-0.671-0.872-1.594-0.758-2.492-0.508c-0.736,0.205-1.445,0.503-2.401,0.843c0.453-0.742,0.947-1.196,0.991-1.691
		c0.132-1.461,1.149-1.95,2.265-2.434c0.778-0.337,1.45-0.847,1.999-1.495c1.175-1.387,0.764-2.684-1.009-3.098
		c-0.605-0.141-1.248-0.119-1.873-0.184c-0.466-0.049-0.767-0.297-0.856-0.773c-0.073-0.387,0.08-0.674,0.387-0.899
		c1.067-0.778,2.082-1.641,3.209-2.316c1.603-0.961,1.977-1.508,1.793-3.343c-0.076-0.759-0.339-1.498-0.134-2.281
		c0.285-1.085-0.108-1.995-1.018-2.535c-1.85-1.097-1.637-2.891-1.508-4.539c0.067-0.859,0.06-1.635-0.147-2.451
		c-0.481-1.901-1.81-3.134-3.362-4.116c-0.894-0.566-1.269-1.138-1.031-2.211c0.294-1.324,0.081-2.647-0.428-3.905
		c-0.702-1.735-1.653-2-3.222-0.886c-0.325,0.23-0.556,0.716-0.993,0.199c-0.293-0.347-0.408-0.745-0.084-1.138
		c0.951-1.154,1.045-2.552,1.154-3.951c0.118-1.523,0.125-1.523,1.69-1.578c1.834-0.065,2.475-1.042,1.816-2.772
		c-0.252-0.662-0.666-1.217-1.12-1.757c-0.381-0.455-1.103-0.656-1.12-1.482c0.547-0.287,1.121-0.54,1.644-0.873
		c1.364-0.868,2.668-1.826,3.38-3.34c0.42-0.893,0.761-1.855,0.055-2.772c-0.685-0.889-1.64-0.951-2.661-0.763
		c-0.64,0.118-1.304,0.436-1.976-0.02c0.988-1.372,0.998-1.373,0.87-3.005c-0.038-0.486,0.059-0.896,0.6-0.885
		c1.061,0.021,1.251-0.837,1.782-1.461c0.858-1.009,0.621-3.027,2.641-2.999c0.048,0.001,0.13-0.088,0.141-0.145
		c0.284-1.516,1.283-2.374,2.631-2.954c0.316-0.136,0.473-0.516,0.508-0.876c0.065-0.669,0.414-0.701,1.011-0.641
		c1.411,0.142,1.597-0.051,1.598-1.359c0-0.408-0.093-0.816-0.142-1.214c0.584-0.439,1.538,0.273,1.85-0.683
		c0.28-0.858-0.267-1.4-0.715-2.049c-1.016-1.474-2.191-2.673-3.987-3.128c-0.076-0.019-0.104-0.233-0.154-0.356
		c0.082-0.347,0.36-0.389,0.639-0.378c0.812,0.033,1.119-0.417,1.163-1.154c0.059-1.002-1.893-4.614-2.769-5.146
		c-0.374-0.227-0.768-0.332-1.195-0.32c-0.496,0.014-0.967-0.023-1.403-0.31c-2.26-1.492-2.389-0.752-1.031-3.138
		c0.933-1.64,1.588-3.316,0.129-5.04c-0.475-0.562-0.238-1.09,0.266-1.437c1.988-1.366,2.407-3.1,1.332-5.231
		c-0.029-0.058-0.019-0.137-0.023-0.207c-0.089-1.515-1.095-2.178-2.394-2.535c-0.682-0.187-1.385-0.106-2.084-0.047
		c-0.377,0.032-0.88,0.395-1.106-0.158c-0.233-0.567,0.281-0.873,0.633-1.194c0.81-0.738,1.898-0.85,2.86-1.248
		c0.513-0.212,1.202-0.362,1.093-1.065c-0.167-1.083-0.105-2.275-0.973-3.139c-0.605-0.602-1.222-1.136-0.869-2.152
		c0.304-0.876,0.65-1.703,1.499-2.161c0.48-0.259,1.15-0.309,1.073-1.066c-0.065-0.639-0.603-0.879-1.101-1.153
		c-0.434-0.239-1.313,0.023-1.216-0.811c0.074-0.635,0.805-0.693,1.315-0.874c0.39-0.138,0.807-0.253,1.217-0.275
		c1.694-0.092,2.424-1.148,2.789-2.643c0.464-1.906,0.176-3.747-0.41-5.568c-0.279-0.868-0.56-1.696-0.224-2.646
		c0.27-0.763-0.016-1.525-0.451-2.189c-1.964-2.997-4.569-4.849-8.327-4.594c-0.477,0.032-1.057,0.258-1.221-0.41
		c-0.127-0.516,0.415-0.62,0.748-0.855c1.591-1.121,3.324-2.095,4.437-3.76c1.079-1.616,0.694-2.576-1.168-3.059
		c-0.53-0.138-1.213-0.045-1.362-0.736c-0.183-0.849-0.618-1.543-1.07-2.251c-0.266-0.417-0.187-0.807,0.316-1.009
		c0.324-0.13,0.654-0.259,0.993-0.332c2.078-0.451,2.138-2.578,1.101-3.774c-0.777-0.897-1.551-1.809-2.651-2.341
		c-0.657-0.317-1.147-0.77-1.396-1.479c-0.181-0.515-0.231-1.003,0.344-1.247c1.233-0.523,2.292-1.333,3.441-1.989
		c0.881-0.503,1.476-0.156,1.248,0.758c-0.39,1.563,0.328,2.786,1.112,3.886c0.59,0.828,0.744,1.506,0.59,2.475
		c-0.319,2.002,0.888,4.212,2.668,5.197c1.278,0.707,1.378,0.884,0.889,2.311c-0.575,1.676-0.92,3.377-0.686,5.146
		c0.203,1.536,1.006,2.437,2.286,2.108c1.836-0.472,2.563,0.732,3.364,1.807c0.714,0.957,1.394,1.921,2.344,2.657
		c0.959,0.742,2.026,1.267,3.258,1.291c1.635,0.031,2.447-1.09,1.911-2.624c-0.253-0.725-0.544-1.493-1.132-1.985
		c-0.869-0.727-0.899-1.455-0.375-2.367c0.166-0.288,0.167-0.671,0.245-1.01c0.565-2.473-0.19-4.704-1.317-6.841
		c-0.436-0.827-0.627-1.428,0.246-2.16c0.815-0.684,0.867-1.723,0.472-2.714c-0.31-0.777-0.57-1.607-1.04-2.283
		c-1.226-1.761-1.33-3.836-1.356-5.781c-0.02-1.474-0.52-2.358-1.494-3.218c-0.465-0.411-1.307-0.409-1.466-1.091
		c-0.165-0.706,0.369-1.318,0.576-1.977c0.146-0.465,0.387-0.901,0.534-1.366c0.252-0.797,0.77-1.093,1.589-1.005
		c1.288,0.138,2.504-0.221,3.671-0.701c1.598-0.657,1.899-1.883,0.759-3.111c-0.419-0.451-0.965-0.808-1.507-1.113
		c-0.735-0.413-0.859-0.944-0.722-1.746c0.186-1.09,0.832-1.484,1.816-1.699c2.078-0.455,4.006-1.196,5.375-2.984
		c1.076-1.405,1.034-2.451-0.289-3.634c-0.307-0.274-0.755-0.378-1.015-0.903c0.274-0.657,1.003-1.262,0.775-2.196
		c-0.065-0.267,0.177-0.533,0.488-0.585c1.31-0.217,1.876-1.405,2.722-2.177c1.71-1.559,2.199-1.623,3.544,0.134
		c1.13,1.477,2.532,1.649,3.926,0.403c0.673-0.602,1.27-1.3,1.84-2.004c1.042-1.287,1.042-1.346,2.475-0.719
		c1.415,0.619,2.823,0.627,4.302,0.308c1.457-0.315,2.69-1.086,4.135-1.955c0.062,1.078-0.18,1.964-0.039,2.857
		c0.388,2.463,1.424,3.144,3.744,2.236c0.761-0.298,1.445-0.554,2.133,0.072c0.659,0.599,0.321,1.292,0.145,1.952
		c-0.492,1.842-0.403,3.602,0.725,5.208c0.298,0.424,0.423,0.843,0.362,1.367c-0.26,2.242,0.489,4.266,1.491,6.195
		c1.516,2.919,2.946,3.01,4.852,0.379c0.123-0.169,0.222-0.359,0.363-0.51c0.209-0.224,0.481-0.278,0.756-0.138
		c1.806,0.923,2.278,3.146,0.936,4.678c-0.568,0.649-0.727,1.244-0.482,2.089c0.495,1.708-0.076,2.682-1.757,3.327
		c-0.518,0.199-1.035,0.425-1.505,0.715c-0.54,0.334-1.06,0.761-0.914,1.505c0.14,0.71,0.725,1.033,1.353,1.159
		c1.728,0.348,3.315,0.132,4.632-1.217c0.623-0.638,1.432-0.497,2.086,0.253c0.61,0.7-0.115,0.947-0.461,1.318
		c-0.143,0.153-0.305,0.288-0.45,0.439c-1.219,1.27-1.235,2.364-0.056,3.643c0.945,1.025,1.626,1.016,2.464-0.13
		c0.279-0.382,0.469-0.768,0.917-0.33c0.346,0.338,0.634,0.798,0.193,1.286c-0.133,0.147-0.359,0.205-0.53,0.322
		c-1.29,0.888-1.459,1.424-0.764,2.742c0.848,1.609,2.265,2.415,4.018,2.678c0.837,0.126,1.472-0.197,1.979-0.892
		c0.551-0.754,0.966-1.525,0.939-2.492c-0.024-0.876,0.412-1.104,1.208-0.801c0.722,0.275,1.471,0.459,2.25,0.441
		c1.587-0.037,2.266-1.03,1.694-2.529c-0.491-1.285-1.401-2.214-2.563-2.95c-2.471-1.565-2.505-1.619-0.707-4.003
		c0.629-0.834,0.546-1.342-0.223-1.897c-0.263-0.19-0.68-0.226-0.707-0.794c1.032-0.382,1.269-1.094,0.67-2.102
		c-0.35-0.588-0.747-1.181-0.118-1.9c0.598-0.683,1.163-0.228,1.713-0.052c0.98,0.313,1.924,0.268,2.874-0.077
		c0.929-0.338,1.493-1.121,1.125-1.951c-0.817-1.843-1.097-4.149-3.513-4.869c-0.174-0.052-0.305-0.251-0.408-0.34
		c-0.089-0.407,0.186-0.567,0.349-0.78c0.598-0.781,1.581-0.845,2.379-1.25c1.64-0.833,1.773-0.993,1.472-2.891
		c-0.147-0.927,0.22-1.241,1.018-0.94c0.946,0.356,1.418-0.163,1.948-0.767c0.351-0.401,0.502-0.995,1.074-1.206
		c0.598,0.539,1.174,1.208,1.799,0.061c0.659-1.209,1.656-1.039,2.726-0.682c0.525,0.175,1.079,0.267,1.626,0.366
		c0.682,0.123,0.79-0.861,1.451-0.934c0.152,0.468,0.236,0.808,0.372,1.127c0.239,0.56,0.354,1.297,1.193,1.235
		c0.72-0.053,1.018-0.646,1.328-1.207c0.251-0.454,0.114-1.155,0.806-1.335c1.715,1.072,1.742,1.104,3.34-0.179
		c0.598-0.48,1.101-0.46,1.72-0.163c0.804,0.386,1.272-0.104,1.777-0.655c0.898-0.98,0.101-1.922-0.158-3.03
		c1,0.234,1.787,0.475,2.593,0.59c0.816,0.117,1.481,0.343,1.791,1.197c0.246,0.679,0.738,0.896,1.48,0.858
		c1.365-0.07,2.318,0.63,2.89,1.853c0.609,1.301,2.601,0.373,3.103,1.95c0.103,0.323,0.77,0.161,1.18,0.08
		c0.273-0.054,0.539-0.144,0.807-0.222c0.268-0.078,0.544-0.139,0.801-0.246c0.9-0.376,1.204,0.053,1.456,0.877
		c0.295,0.966,0.217,1.933,0.303,2.902c0.116,1.301,0.871,2.081,2.057,1.754c1.368-0.378,2.447,0.008,3.586,0.569
		c0.715,0.352,1.486,0.322,2.261,0.26c0.455-0.037,0.957-0.285,1.312,0.297c0.635,1.043,1.8,0.989,2.79,1.194
		c1.698,0.352,2.426-0.068,3.215-1.581c0.489-0.937,0.997-1.864,1.549-2.896c1.274,2.09,1.269,2.086,0.039,3.563
		c-0.22,0.264-0.438,0.558-0.554,0.876c-0.611,1.669-1.831,2.157-3.484,1.873c-1.343-0.23-2.484,0.163-3.415,1.156
		c-0.393,0.42-0.746,0.899-0.539,1.496c0.235,0.677,0.877,0.666,1.418,0.547c0.935-0.205,1.462,0.04,1.628,1.036
		c0.087,0.523,0.464,0.888,1.046,0.819c1.535-0.181,3.05-0.462,4.325-1.422c0.986-0.743,0.908-1.798,0.791-2.868
		c-0.042-0.382,0.148-0.721,0.594-0.668c0.558,0.066,0.676,0.506,0.472,0.925c-0.458,0.94-0.496,2.047-1.184,2.892
		c-0.597,0.734-0.59,1.545-0.212,2.365c0.381,0.826,0.978,0.932,1.666,0.359c0.429-0.357,0.431-1.056,1.253-1.334
		c1.052,1.227,2.401,2.306,2.834,4.089c0.348,1.438,0.358,1.438,1.81,1.208c0.336-0.053,0.671-0.213,0.998,0.026
		c0.029,0.06,0.089,0.123,0.081,0.176c-0.331,2.242,0.042,2.676,2.221,2.517c0.299-0.022,0.612-0.038,0.776,0.176
		c0.954,1.246,2.083,1.023,3.196,0.293c0.198,0.325,0.309,0.5,0.414,0.679c0.385,0.652,0.726,1.582,1.67,1.172
		c0.851-0.37,0.908-1.329,0.868-2.196c-0.02-0.438-0.26-0.785-0.493-1.138c-0.178-0.269-0.498-0.518-0.125-1.081
		c1.259,1.592,3.081,2.034,4.893,2.479c0.961,0.236,1.817,0.082,2.326-0.897c0.231-0.444,0.503-1.003,1.027-0.918
		c1.111,0.181,2.035-0.394,3.053-0.555c0.846-0.134,1.555-0.064,1.529,1.099c-0.013,0.608-0.094,1.387,0.655,1.612
		c0.857,0.257,1.171-0.547,1.596-1.078c0.081-0.101,0.203-0.168,0.398-0.324c0.625,0.827,1.404,1.098,2.278,0.335
		c0.82-0.716,1.732,0.678,2.549-0.135c0.303-0.302,0.529-0.627,0.693-1.025c0.179-0.436-0.401-0.923,0.093-1.321
		c2.008,0.754,2.058,0.766,2.516-1.196c0.163-0.7,0.542-1.087,1.071-1.45c0.723-0.496,1.165-1.402,0.652-1.978
		c-1.381-1.549-1.326-3.285-1.144-5.112c0.006-0.062-0.046-0.13-0.073-0.195c-0.269-0.655-0.056-1.053,0.616-1.275
		c0.993-0.327,1.977-0.683,2.956-1.049c0.666-0.249,1.1-0.1,1.21,0.641c0.113,0.763,0.214,1.532,0.571,2.222
		c0.387,0.748,0.911,0.784,1.488,0.186c0.494-0.511,0.439-1.331,1.215-1.931c0.77,0.73,1.697,1.157,2.539-0.021
		c0.169-0.236,0.49-0.33,0.759-0.217c1,0.423,1.936-0.071,2.868-0.237c0.952-0.17,1.51-0.038,2.005,0.871
		c0.634,1.163,1.408,2.141,3.025,2.233c1.22,0.069,1.662,1.422,1.022,2.584c-0.336,0.61-0.731,1.178-0.951,1.855
		c-1.188,3.652-1.195,3.649,2.536,4.645c-0.193,0.588-0.392,1.171-0.575,1.76c-0.212,0.684-0.232,1.379-0.023,2.065
		c0.422,1.387,1.137,1.697,2.486,1.074c0.309-0.143,0.586-0.431,0.965-0.003c0.098,0.586-0.357,0.976-0.668,1.412
		c-0.581,0.814-0.979,1.706-1.085,2.693c-0.128,1.198,0.609,1.859,1.792,1.636c0.772-0.146,1.438-0.535,2-1.084
		c0.654-0.64,1.147-1.397,1.612-2.184c0.936-1.581,1.698-3.243,3.631-4.047c1.314-0.546,1.333-1.677,0.385-2.953
		c-0.275-0.37-0.974-0.674-0.609-1.178c0.667-0.921,0.862-2.075,1.572-2.943c0.337-0.412,0.722-0.872,1.414-0.456
		c0.605,0.364,1.06-0.013,1.429-0.481c0.258-0.328,0.509-0.794,0.988-0.542c0.828,0.435,1.452-0.14,2.196-0.438
		c0.2,0.559,0.332,1.026,0.53,1.462c0.5,1.1,1.116,1.19,1.806,0.21c0.424-0.602,0.7-1.307,1.05-1.98
		c1.599,1.207,1.62,1.235,3.196,0.061c0.539-0.401,0.973-0.434,1.515-0.102c0.698,0.427,1.184,0.036,1.621-0.473
		c0.372-0.432,0.603-0.928,0.741-1.484c0.187-0.757,0.618-1.258,1.479-1.162c0.973,0.109,1.169-0.566,1.308-1.281
		c0.123-0.632-0.042-1.246-0.168-1.864c-0.154-0.756,0.127-1.226,0.955-1.259c0.279-0.011,0.563,0.005,0.837-0.037
		c1.538-0.236,2.175-1.205,1.705-2.674c-0.168-0.524-0.462-1.018-0.754-1.491c-0.478-0.778-0.435-1.599-0.28-2.435
		c0.065-0.352,0.212-0.68,0.63-0.73c0.317-0.038,0.524,0.15,0.65,0.419c0.721,1.537,2.12,2.041,3.689,2.335
		c-0.107,0.256-0.179,0.444-0.262,0.627c-0.769,1.687-0.607,2.147,1.198,2.338c0.96,0.102,1.373,0.384,1.481,1.31
		c0.06,0.516,0.462,1.013,0.979,0.917c1.179-0.219,2.417,0.409,3.442,0.026c1.178-0.44,1.147,0.136,1.283,0.864
		c0.089,0.477,0.164,0.966,0.334,1.417c0.176,0.468,0.778,0.684,1.008,0.364c0.923-1.286,2.086-1.503,3.499-1.094
		c0.099,0.029,0.241-0.129,0.373-0.172c1.827-0.6,2.572-0.19,2.908,1.682c0.238,1.324,0.557,2.597,1.461,3.645
		c1.041,1.207,2.389,1.196,3.348-0.099c0.582-0.785,0.997-1.681,1.259-2.634c0.222-0.809,0.265-1.747,1.59-1.094
		c0.69,0.34,1.109-0.365,1.512-0.842c0.512-0.606,0.495-1.43,0.807-2.13c0.009,1.346,0.397,2.512,1.207,3.537
		c0.313,0.395,0.698,0.756,1.224,0.69c0.588-0.074,0.679-0.622,0.806-1.099c0.346-1.29,0.221-2.462-0.671-3.542
		c-0.743-0.9-0.698-0.936-0.382-2.149c1.173,2.243,3.34,2.435,5.406,2.741c2.296,0.341,2.521,0.162,2.739-2.095
		c0.078-0.806,0.379-1.136,1.146-1.131c0.349,0.002,0.702,0.007,1.047-0.035c1.457-0.179,1.891-1.125,0.997-2.313
		c-1.124-1.492-2.795-2.173-4.452-1.541c-1.632,0.622-2.957,0.195-4.397-0.249c1.721-1.744,1.754-1.893,2.415-1.743
		c1.798,0.409,3.445-0.38,5.163-0.546c0.991-0.096,1.697-0.105,2.401,0.696c0.559,0.635,1.425,0.848,2.279,0.94
		c0.329,0.035,0.842-0.086,0.876,0.355c0.143,1.837,1.366,1.372,2.455,1.216c0.58-0.083,0.869,0.138,1.065,0.713
		c0.626,1.835,0.652,1.824,2.571,1.404c0.34-0.074,0.684-0.166,1.028-0.18c1.512-0.065,2.123,0.431,2.429,1.924
		c0.154,0.753,0.257,1.521,0.481,2.253c0.778,2.54,2.622,2.986,4.562,1.122c0.352-0.338,0.643-0.738,0.988-1.084
		c0.888-0.892,1.193-2.186,2.013-3.097c0.232,0.104,0.39,0.128,0.474,0.221c0.409,0.449,0.628,1.244,1.372,1.131
		c0.84-0.128,0.869-1.005,1.085-1.639c0.201-0.592,0.284-1.223,0.437-1.832c0.075-0.3,0.284-0.477,0.607-0.414
		c0.231,0.045,0.329,0.243,0.36,0.459c0.029,0.207,0.035,0.417,0.048,0.625c0.05,0.765-0.021,1.688,0.801,2.017
		c0.907,0.362,1.307-0.506,1.798-1.09c0.556-0.66,0.962-0.402,1.158,0.318c0.207,0.76,0.456,1.527,1.179,1.907
		c1.16,0.609,1.333,1.569,1.446,2.768c0.194,2.06,0.427,4.172,2.318,5.589c0.649,0.486,0.247,0.996-0.244,1.355
		c-0.437,0.32-0.942,0.174-1.419,0.079c-1.81-0.359-3.288,0.352-4.615,1.469c-0.587,0.495-1.196,1.081-1.002,1.947
		c0.221,0.99,1.113,1.246,1.948,1.299c1.124,0.07,1.914,0.356,2.493,1.471c0.564,1.085,1.274,1.028,2.153,0.099
		c0.284-0.3,0.47-0.743,0.807-0.927c0.426-0.234,1.126-0.278,1.2,0.342c0.141,1.189,0.767,2.334-0.088,3.625
		c-0.959,1.448-0.681,2.05,0.983,2.617c0.879,0.299,1.236,0.728,1.3,1.614c0.071,0.976,0.149,2.113,0.932,2.709
		c1.168,0.889,0.804,1.658,0.318,2.682c-0.653,1.376-0.704,2.864-0.049,4.265c0.736,1.575,2.089,1.648,3.039,0.226
		c0.522-0.782,0.783-1.622,0.62-2.58c-0.162-0.954,0.094-1.678,1.198-1.796c0.547-0.059,0.884-0.725,1.498-0.527
		c0.399,0.521,0.736,1.063,1.173,1.506c0.59,0.599,1.245,1.175,2.197,0.959c1.055-0.24,1.325-1.102,1.587-2.007
		c0.464-1.602-0.014-3.036-0.687-4.445c-0.248-0.52-0.549-0.971,0.135-1.432c1.225-0.825,1.093-2,0.687-3.19
		c-0.366-1.076-0.811-2.103,0.498-2.933c0.471-0.299,0.546-0.968,0.622-1.519c0.33-2.397,0.377-4.718-1.415-6.705
		c-0.531-0.588-1.136-1.504-0.476-2.26c0.692-0.793,1.466-1.705,2.847-1.31c1.359,0.388,2.77,0.321,4.16,0.07
		c0.698-0.126,1.581-0.289,1.773-0.953c0.431-1.485,1.571-1.99,2.773-2.587c0.822-0.409,1.421-1.114,1.5-2.136
		c0.03-0.385-0.095-0.874,0.58-1.148c0.789,0.625,2.011,1.132,2.412,2.013c0.709,1.554,1.617,2.891,2.909,4.131
		c-0.606,0.537-1.152,0.956-1.619,1.45c-0.631,0.667-1.296,1.451-0.83,2.403c0.439,0.897,1.347,0.423,2.08,0.358
		c0.139-0.012,0.278-0.031,0.417-0.043c0.71-0.061,1.249,0.12,1.353,0.938c0.072,0.558,0.198,1.093,0.57,1.549
		c0.434,0.531,1.201-0.085,1.778,0.477c-1.541,0.972-3.007,1.903-3.865,3.344c-1.017,1.708-2.163,2.834-4.279,3.139
		c-1.64,0.236-2.21,1.822-1.111,3.004c1.356,1.459,1.762,3.699,3.809,4.562c0.331,0.14,0.547,0.486,0.533,0.848
		c-0.088,2.23,0.984,4.198,1.443,6.304c0.324,1.487,0.25,2.686-0.722,3.898c-0.932,1.162-1.467,2.539-1.47,4.068
		c-0.002,1.15-0.529,1.994-1.452,2.634c-0.643,0.445-1.134,1.031-1.517,1.711c-0.895,1.586-0.282,3.052,1.488,3.555
		c0.625,0.178,1.246,0.036,1.872-0.01c0.421-0.031,0.933-0.451,1.255,0.147c-0.066,0.378-0.302,0.509-0.58,0.578
		c-2.398,0.597-2.759,1.416-1.616,3.644c0.636,1.24,1.707,2.127,2.668,3.133c-0.867,0.82-1.832,0.82-2.815,0.831
		c-1.341,0.015-2.462,0.493-3.105,1.752c-0.199,0.39-0.485,0.669-0.811,0.937c-0.721,0.591-1.397,1.252-1.152,2.289
		c0.244,1.03,1.365,0.437,2.014,0.989c-0.124,1.058-0.608,2.244,0.525,3.171c-3.351,1.105-3.726,2.362-1.256,4.989
		c0.19,0.203,0.377,0.419,0.601,0.578c0.303,0.214,0.564,0.413,0.417,0.84c-0.374,1.084,0.271,1.266,1.147,1.464
		c1.327,0.3,1.553,0.981,0.714,2.063c-0.519,0.668-0.983,1.359-1.363,2.104c-0.386,0.756-0.747,0.963-1.627,0.508
		c-1.886-0.976-2.616-0.706-3.788,1.107c-0.454,0.702-0.863,1.437-1.232,2.187c-0.191,0.389-0.143,0.797,0.259,1.117
		c1.592,1.269,3.905,1.034,5.263-0.527c0.372-0.427,0.487-1.197,1.314-1.118c-0.01,2.193-1.291,3.466-3.299,3.14
		c-1.577-0.256-2.927,0.079-4.066,1.137c-0.751,0.697-0.523,1.558,0.492,1.576c1.688,0.03,1.971,2.098,3.532,2.184
		c0.057,0.003,0.151,0.244,0.145,0.369c-0.076,1.442,0.553,2.048,2.008,1.777c0.385-0.072,0.814,0.196,0.653,0.567
		c-0.644,1.482-0.527,3.32-2.225,4.32c-1.968,1.159-3.473,2.851-4.452,4.902c-0.652,1.367-1.146,2.804-1.859,4.16
		c-0.664,1.263-0.353,1.804,1.055,2.394c1.198,0.502,2.422,0.94,3.685,1.426c-0.263,0.533-0.597,0.901-0.602,1.274
		c-0.017,1.34-0.663,1.65-1.934,1.739c-2.405,0.168-3.787,1.704-3.914,4.093c-0.031,0.583-0.182,1.077-0.379,1.599
		c-0.291,0.773-0.158,1.493,0.778,1.549c1.117,0.068,1.135,0.559,1.041,1.497c-0.159,1.596,0.2,1.836,1.76,1.57
		c0.263-0.045,0.529-0.081,0.867-0.133c-0.05,1.195,0.367,2.693,1.409,2.342c1.734-0.583,3.165,1.593,4.773,0.191
		c0.072-0.063,0.462,0.067,0.531,0.198c0.621,1.172,1.879,1.427,3.083,1.959c-0.75,0.817-1.567,1.245-2.093,2.008
		c-0.694,1.006,0.029,1.749,0.455,2.528c-0.817,0.352-1.38-0.103-1.992-0.148c-1.792-0.133-2.81,0.683-2.923,2.476
		c-0.034,0.546,0.064,1.114,0.187,1.653c0.575,2.525,1.799,4.707,3.736,6.417c0.971,0.858,1.116,1.841,1.023,3.005
		c-0.056,0.712-0.576,1.076-0.948,1.57c-0.803,1.069-0.768,1.282,0.335,2.31c0.216,0.202,0.455,0.354,0.342,0.668
		c-0.386,1.076-0.236,2.212-0.372,3.315c-0.112,0.913-0.421,0.972-1.223,0.779c-1.632-0.393-2.1-0.089-2.658,1.446
		c-0.119,0.328-0.202,0.668-0.307,1.001c-0.276,0.875,0.116,1.353,0.948,1.495c0.687,0.117,1.388,0.155,2.362,0.257
		c-0.976,0.518-1.656,0.865-2.324,1.236c-0.569,0.316-0.858,0.839-1.177,1.406c-0.912,1.625,1.564,2.532,0.793,4.104
		c-0.071,0.145,0.184,0.509,0.361,0.704c0.28,0.308,0.852-0.045,1.119,0.468c-1.073,2.294-0.143,3.881,2.048,4.915
		c-0.653,0.723-1.489,0.858-1.968,1.495c-0.663,0.883-0.511,1.509,0.577,1.785c0.569,0.144,1.082,0.222,1.309,0.849
		c0.19,0.527,0.63,0.712,1.147,0.766c0.807,0.084,1.445,0.466,1.964,1.084c0.325,0.387,0.749,0.657,1.269,0.643
		c1.376-0.037,2.435,0.783,4.175,1.269c-0.611,0.361-0.894,0.46-1.084,0.651c-2.003,2.01-1.992,2.11,0.244,3.782
		c0.692,0.517,0.697,0.902-0.066,1.445c-0.681,0.486-1.403,0.918-2.126,1.341c-0.971,0.569-1.739,1.242-1.331,2.513
		c0.181,0.563-0.097,0.898-0.403,1.305c-1.612,2.145-1.671,4.559-0.923,6.981c0.551,1.785,1.587,3.247,3.915,3.203
		c-0.322,0.632-0.596,1.114-0.821,1.618c-0.659,1.482-0.459,1.78,1.228,1.801c0.408,0.005,0.867-0.193,1.089,0.32
		c0.219,0.508,0.025,0.956-0.324,1.341c-0.469,0.517-0.984,1.001-1.224,1.682c-0.375,1.065-0.022,1.579,1.116,1.638
		c1.682,0.087,1.939,0.366,2.089,1.978c0.065,0.692-0.305,1.196-0.517,1.776c-0.271,0.741-0.549,1.712,0.276,2.065
		c1.216,0.519,1.133,1.386,1.175,2.379c0.073,1.721,0.242,1.83,1.991,1.74c0.21-0.011,0.408,0.024,0.509,0.404
		c-0.48,0.844-1.672,0.786-2.31,1.517c-0.515,0.591-1.105,1.168-0.79,2.014c0.279,0.749,1.042,0.613,1.641,0.587
		c1.028-0.046,1.553,0.409,1.738,1.392c0.089,0.471,0.195,1.165,0.732,1.156c1.56-0.026,1.163,0.969,1.104,1.84
		c-0.057,0.843,0.039,1.676,0.254,2.492c0.215,0.818-0.068,1.366-0.872,1.627c-0.805,0.261-1.562,0.596-2.196,1.18
		c-1.516,1.396-1.494,2.487,0.208,3.706c0.618,0.443,1.008,0.921,1.136,1.655c0.259,1.483,0.939,2.767,1.893,3.918
		c0.262,0.316,0.654,0.658,0.377,1.095c-0.46,0.725-0.634,1.251,0.125,1.995c0.509,0.498,0.135,1.581,1.197,1.999
		c0.553,0.217,0.99,0.986,1.261,1.602c0.33,0.751-0.667,0.948-0.881,1.511c-0.124,0.324-0.352,0.637-0.374,0.966
		c-0.063,0.936-0.541,1.197-1.394,1.025c-0.341-0.069-0.693-0.085-1.041-0.122c-2.799-0.295-3.875,0.775-3.346,3.454
		c0.169,0.855,0.274,1.622-0.137,2.427c-0.41,0.803-0.076,1.332,0.735,1.61c0.462,0.158,0.927,0.308,1.387,0.473
		c1.5,0.537,1.499,0.539,1.552,2.428c-0.599,0.259-1.236,0.109-1.855,0.153c-0.785,0.056-1.522,0.24-2.167,0.694
		c-0.638,0.45-1.324,0.974-1.042,1.856c0.237,0.741,1.032,0.554,1.635,0.624c0.138,0.016,0.281,0.023,0.419,0.005
		c1.095-0.144,1.701,0.251,1.771,1.432c0.05,0.842,0.597,1.166,1.444,1.13c1.54-0.066,3.075-0.161,4.56-0.595
		c0.811-0.237,1.557-0.606,2.055-1.357c0.232-0.35,0.313-1.155,0.97-0.701c0.493,0.34,0.083,0.901-0.149,1.314
		c-0.132,0.236-0.372,0.41-0.557,0.617c-1.258,1.41-1.256,2.603-0.009,4.026c0.366,0.418,0.704,0.86,1.059,1.288
		c0.444,0.536,0.493,0.998,0.126,1.69c-0.859,1.616-0.507,2.508,1.056,3.427c0.577,0.34,1.344,0.375,1.778,1.053
		c-0.174,0.16-0.308,0.306-0.464,0.424c-1.738,1.317-1.859,2.382-0.393,3.935c1.021,1.082,2.245,1.878,3.637,2.416
		c0.428,0.165,0.994,0.207,0.998,0.886c-0.459,0.571-1.16,0.758-1.765,1.086c-1.254,0.681-2.281,1.625-3.146,2.729
		c-1.532,1.955-0.856,3.679,1.613,4.029c1.818,0.257,3.627,0.162,5.318-0.716c0.772-0.401,1.571-0.747,2.78-1.318
		c-1.342,2.468-1.203,4.695-1.008,6.943c-2.794-0.755-5.283,0.4-6.4,2.922c-0.375,0.848-0.637,1.752-0.023,2.591
		c0.6,0.819,1.463,0.703,2.291,0.435c0.792-0.256,1.308-0.079,1.708,0.698c0.877,1.704,2.591,2.825,3.204,4.767
		c0.255,0.808,1.172,1.354,1.965,1.825c1.921,1.141,1.919,1.143,0.821,3.085c-0.103,0.182-0.21,0.366-0.284,0.56
		c-0.273,0.725-0.785,0.636-1.469,0.714c-1.938,0.22-3.148-0.299-3.447-2.345c-0.018-0.125-0.125-0.255-0.222-0.35
		c-2.583-2.526-2.906-3.145-5.595-0.258c-0.306,0.328-0.55,0.581-1.028,0.565c-0.84-0.029-1.462,0.536-1.44,1.224
		c0.029,0.854-1.028,1.875,0.281,2.612c0.581,0.327,0.552,0.815,0.354,1.444c-0.239,0.759-0.09,1.598-0.694,2.304
		c-0.337,0.394-0.424,1.043-0.141,1.594c0.256,0.498,0.865,0.471,1.418,0.694c-1.39,0.73-1.691,0.977-1.589,1.387
		c0.172,0.684,0.87,0.844,1.34,1.23c0.1,0.082,0.264,0.081,0.393,0.131c1.822,0.706,1.895,0.863,1.295,2.732
		c-0.169,0.528-0.407,1.041-0.274,1.626c0.164,0.717,1.039,0.607,1.355,1.156c-2.388,1.326-1.576,1.697-0.144,2.585
		c0.29,0.18,0.613,0.306,0.921,0.456c-2.05,1.292-2.4,1.003-3.438,3.582c-0.247,0.614-0.687,1.281-1.436,1.439
		c-1.991,0.421-1.06,2.264-1.616,3.377c-0.381,0.763,0.745,1.017,1.255,1.401c0.397,0.299,0.983,0.491,0.814,1.053
		c-0.369,1.226-0.521,2.425-0.219,3.687c0.049,0.202-0.168,0.608-0.367,0.706c-1.304,0.641-1.722,1.971-2.466,3.046
		c-0.736,1.063-1.558,1.915-3.01,1.974c-0.997,0.04-1.482,0.97-2.046,1.667c-0.444,0.549-0.097,1.01,0.211,1.51
		c0.314,0.509-0.107,0.9-0.381,1.306c-0.778,1.156-0.759,1.931,0.16,2.921c0.419,0.451,0.89,0.869,1.473,1.157
		c1.023,0.505,1.501,1.277,0.819,2.373c-0.502,0.805-0.018,1.196,0.477,1.767c0.639,0.736,1.776,0.472,2.177,0.942
		c1.066,1.249,2.465,1.281,3.818,1.663c0.857,0.242,1.497,0.853,0.968,1.885c-0.337,0.657-0.112,1.145,0.443,1.393
		c1.881,0.838,3.735,1.839,5.923,1.461c1.512-0.261,1.616-0.284,1.614-1.865c-0.001-1.177,0.277-2.094,1.084-3.017
		c0.802-0.918,1.418-2.054,0.643-3.429c-0.293-0.52-0.364-1.183-0.654-1.751c-0.333-0.652-1.218-0.613-1.652-1.361
		c1.753-0.68,2.49-2.278,3.462-3.569c1.657-2.2,0.803-3.613-1.811-4.339c-0.131-0.036-0.281,0.006-0.417-0.018
		c-0.461-0.083-0.983-0.07-1.169-0.649c0.265-0.467,0.782-0.225,1.121-0.43c0.355-0.214,0.676-0.482,1.021-0.714
		c0.771-0.517,0.893-1.054,0.043-1.599c-0.367-0.235-1.065-0.321-0.218-0.87c0.544-0.353,0.376-0.849,0.117-1.294
		c-0.209-0.361-0.481-0.685-0.707-1.036c-0.895-1.39-0.717-1.862,0.745-2.651c1.881-1.016,3.059-2.696,4.013-4.551
		c0.139-0.27,0.121-0.617-0.081-0.789c-0.827-0.705-1.18-1.372-0.203-2.263c0.219-0.2-0.054-0.653-0.169-0.985
		c-0.28-0.808-0.741-1.493-1.299-2.13c-0.359-0.41-0.513-0.974-0.026-1.294c1.105-0.727,0.321-1.249,0.09-2.031
		c-0.176-0.595,0.659-1.446-0.036-2.234c-0.282-0.319-0.554-0.76-0.98-0.706c-1.605,0.206-1.649-1.052-2.137-1.912
		c0.18-0.164,0.226-0.241,0.284-0.252c0.267-0.053,0.537-0.127,0.806-0.122c1.97,0.033,2.479-0.289,3.129-2.041
		c0.146-0.393,0.293-0.79,0.378-1.199c0.21-1.012,0.808-1.556,1.823-1.748c1.102-0.209,2.194-0.548,3.136-1.146
		c1.258-0.799,2.447-1.732,1.978-3.531c-0.116-0.444-0.058-0.854,0.221-1.186c1.829-2.178,1.727-5.266,3.622-7.465
		c0.965-1.119,0.461-2.192-0.889-2.866c-1.395-0.696-1.383-0.691-0.741-2.194c0.218-0.51,0.404-1.043,0.531-1.583
		c0.658-2.806-1.597-5.456-4.496-5.213c-0.795,0.067-1.345-0.069-1.787-0.734c-0.454-0.682-1.076-1.07-1.946-0.986
		c-0.457,0.044-0.948-0.14-0.875-0.645c0.093-0.643,0.663-0.354,0.998-0.229c1.769,0.659,3.456,0.325,5.078-0.433
		c0.944-0.441,1.983-0.964,2.02-2.186c0.036-1.168-0.953-1.605-1.845-2.038c-1.188-0.576-1.779-1.53-1.783-2.845
		c-0.004-1.309-0.508-2.434-1.194-3.519c-1.34-2.118-0.66-4.295,1.661-5.41c0.887-0.426,1.753-0.894,2.431-1.613
		c0.88-0.932,0.794-1.914-0.208-2.701c-0.674-0.53-1.488-0.768-2.312-0.935c-0.878-0.178-1.548-0.493-1.768-1.503
		c-0.155-0.709-0.727-1.173-1.426-1.424c-0.46-0.165-1.108-0.244-1.24-0.698c-0.476-1.634-1.797-2.519-3.093-3.495
		c0.711-0.497,1.072-1.345,1.763-1.348c1.772-0.007,1.679-1.344,1.96-2.445c0.135-0.53-0.245-1.105,0.129-1.647
		c0.891-0.133,1.567,0.501,2.368,0.685c0.816,0.188,1.613,0.46,2.429,0.652c1.641,0.385,1.788,0.358,2.228-1.225
		c0.238-0.854,0.64-1.177,1.462-1.094c0.417,0.042,0.833,0.126,1.249,0.129c1.1,0.008,1.51-0.595,1.11-1.623
		c-0.291-0.749-0.84-1.301-1.545-1.644c-1.082-0.527-2.275-0.98-3.429-0.529c-1.119,0.438-1.861-0.341-2.783-0.469
		c-1.48-0.206-1.23-1.47-1.623-2.366c-0.567-1.293,0.4-2.734-0.812-4.133c1.787,0.689,1.787,0.689,2.41,2.199
		c0.825,2.001,1.781,2.564,3.888,2.233c0.758-0.119,1.514-0.28,2.249-0.497c1.287-0.381,1.604-0.942,1.02-2.16
		c-0.451-0.94-0.781-1.913-1.177-2.867c-0.686-1.653-1.642-2.146-3.273-1.919c-1.917,0.266-1.943,0.246-2.554-1.922
		c0.322-0.23,0.676-0.064,1.015-0.085c1.376-0.082,1.856-0.744,1.427-2.049c-0.294-0.894-0.896-1.563-1.72-2.035
		c-0.423-0.243-0.885-0.489-0.844-1.087c0.12-1.78-0.36-3.462-0.844-5.14c-0.179-0.62-0.144-1.077,0.55-1.341
		c1.008-0.384,1.509-1.19,1.714-2.212c0.134-0.668,0.502-1.012,1.193-0.743c1.11,0.434,1.481-0.4,1.947-1.086
		c0.775-1.139-0.246-1.923-0.696-2.861c0.296-0.096,0.477-0.189,0.665-0.209c0.584-0.063,1.307,0.321,1.654-0.488
		c0.304-0.707,0.213-1.49-0.299-1.969c-1.498-1.398-1.644-3.521-2.96-4.971c0.369-0.305,0.62-0.094,0.88-0.045
		c1.252,0.233,1.624-0.02,1.802-1.254c0.091-0.631,0.009-1.246-0.197-1.857c-0.149-0.443-0.437-0.898-0.088-1.421
		c0.188-0.016,0.391-0.062,0.589-0.045c1.926,0.168,2.528-0.654,1.746-2.39c-0.296-0.658-0.767-1.159-1.351-1.567
		c-0.282-0.197-0.772-0.389-0.708-0.703c0.277-1.346-0.659-1.889-1.535-2.435c-0.85-0.531-0.504-1.156-0.307-1.826
		c0.192-0.654,0.402-1.214,1.268-0.988c0.976,0.254,1.407-0.281,1.652-1.13c0.255-0.884,0.744-1.657,1.276-2.394
		c0.505-0.699,0.831-1.472,0.914-2.313c0.179-1.81,0.291-3.624-0.275-5.403c-0.146-0.459-0.503-0.963-0.281-1.408
		c0.595-1.194-0.027-2.178-0.447-3.182c-0.703-1.683-1.375-1.961-3.103-1.42c-0.556,0.174-1.255,0.778-1.635,0.013
		c-0.334-0.674,0.362-1.1,0.931-1.412c0.061-0.034,0.121-0.07,0.182-0.103c0.791-0.419,0.852-1.046,0.474-1.765
		c-0.518-0.985-1.039-1.969-1.606-2.926c-0.22-0.371-0.444-0.649-0.236-1.133c0.603-1.401-0.013-2.419-1.124-3.25
		c-0.436-0.326-1-0.562-0.762-1.307c0.256-0.8,0.854-0.806,1.515-0.735c0.723,0.077,1.137-0.277,1.479-0.908
		c0.518-0.957,1.346-1.518,2.444-1.788c1.06-0.261,1.226-0.971,0.528-1.834c-0.498-0.616-1.176-1.006-1.932-1.193
		c-1.071-0.264-1.012-0.958-0.8-1.781c0.129-0.503,0.415-0.835,0.811-1.165c1.153-0.96,1.179-1.232,0.401-2.364
		c-0.274-0.398-0.688-0.682-0.855-1.174c-0.461-1.361-1.372-2.229-2.823-2.485c-0.631-0.111-0.918-0.487-0.877-1.107
		c0.169-0.055,0.238-0.102,0.294-0.09c0.202,0.043,0.4,0.107,0.599,0.161c1.459,0.396,2.07-0.082,2.011-1.567
		c-0.025-0.623-0.451-1.182-0.302-1.807c0.144-0.238,0.353-0.229,0.565-0.241c1.521-0.09,1.943-0.755,1.291-2.093
		c-0.179-0.368-0.422-0.762-0.743-0.994c-1.157-0.838-1.133-2.532-2.42-3.27c-0.12-0.069-0.13-0.382-0.139-0.584
		c-0.043-1.012,0.397-1.272,2.021-1.235c0.613,0.014,1.311,0.192,1.66-0.538c0.304-0.636,0.065-1.241-0.295-1.775
		c-1.046-1.555-2.58-2.017-4.371-1.946c-0.566,0.022-1.394,0.694-1.652-0.14c-0.223-0.719,0.791-0.781,1.254-1.138
		c0.165-0.128,0.399-0.196,0.515-0.355c0.76-1.046,1.751-0.896,2.827-0.658c1.59,0.351,1.664,0.336,2.237-1.259
		c0.293-0.817,0.691-1.13,1.525-1.005c0.481,0.073,0.979,0.106,1.462,0.069C474.188,200.968,474.544,200.469,474.352,199.654z
		 M76.223,226.862c0.236-0.381,0.57-0.615,1.042-0.491c0.439,0.115,0.736,0.428,0.824,0.855c0.102,0.496-0.272,0.724-0.655,0.931
		c-0.847,0.458-1.683,0.936-2.524,1.405c-0.064-0.075-0.128-0.15-0.191-0.225C75.219,228.511,75.714,227.682,76.223,226.862z
		 M72.543,73.114c-0.49-0.004-1.087-0.911-1.018-1.572c0.051-0.491,0.39-0.792,0.829-0.693c0.54,0.122,1.337-0.029,1.42,0.858
		C73.837,72.377,73.163,73.119,72.543,73.114z M205.777,62.069c-0.525-1.162-1.021-2.293-2.006-3.091
		c-0.346-0.28-0.594-0.671-0.156-1.039c0.442-0.372,0.969-0.329,1.187,0.241c0.343,0.898,0.591,1.773,1.473,2.395
		C206.584,60.792,206.357,61.593,205.777,62.069z M431.175,257.303c-0.147,0.379-0.493,0.426-0.852,0.282
		c-0.501-0.201-1.078-0.214-1.634-0.721c0.522-0.555,1.108-0.729,1.709-0.822c0.351-0.054,0.709,0.072,0.802,0.468
		C431.26,256.762,431.266,257.068,431.175,257.303z"/>
	<g>
		<defs>
			<rect id="SVGID_1_" x="-0.001" y="0.001" width="500" height="500"/>
		</defs>
		<clipPath id="SVGID_00000116951912243800306330000017240093387906296506_">
			<use xlink:href="#SVGID_1_"  style="overflow:visible;"/>
		</clipPath>
		<g style="clip-path:url(#SVGID_00000116951912243800306330000017240093387906296506_);">
			<path d="M-15.063,404.048c13.655-2.787,17.38-1.873,20.891,12.265c0.352,1.415-0.033,4.848,0.887,5.993
				c1.048,1.304,4.111,0.487,4.757,1.341c1.634,2.158,2.297,3.916,2.738,6.894c3.924-1.805,14.618,4.069,17.511,6.729
				c-0.375-1.003-0.204-2.322-0.475-3.271c5.076-2.486,4.887,2.079,7.478,2.286c1.615,0.129,3.951-1.661,5.806-1.295
				c9.571,1.89,1.25,6.173,6.26,11.746c5.32,5.918,12.346-8.665,17.437,5.32c1.26-0.892,3.848-1.828,5.45-1.12
				c1.547,0.684,2.176,3.809,3.534,4.24c1.149,0.365,3.417-0.249,4.175,0.053c4.611,1.841,2.88-0.131,6.497,3.536
				c2.742,2.781,0.425,3.965,4.621,5.37c4.779,1.601,26.653-2.247,26.65,7.679c-0.003,10.285-46.779,2.836-53.651,2.835
				c-12.256-0.001-19.584,3.84-30.907,7.284c-8.976,2.731-19.08,0.54-28.301-0.379c-7.032-0.701-21.349,2.306-26.126-3.52
				c-2.311-2.819-2.344-10-2.726-13.493C-24.008,451.3-23.531,438.034-15.063,404.048z"/>
		</g>
		<g style="clip-path:url(#SVGID_00000116951912243800306330000017240093387906296506_);">
			<path d="M408.56,471.848c12.89-5.97,23.314-8.296,37.368-5.914c-0.766-6.71,4.978-8.605,9.703-12.042
				c3.124-2.272,7.72-3.851,10.623-1.303c-1.511-1.165-2.184-3.31-1.609-5.13c1.996-0.062,3.992-0.124,5.987-0.186
				c-0.149-3.568,0.552-8.265,4.073-8.862c1.674-0.284,3.367,0.593,5.053,0.39c1.869-0.226,3.306-1.701,4.572-3.095
				c1.265-1.394,2.682-2.881,4.546-3.144c1.864-0.263,4.017,1.543,3.305,3.285c2.356-3.334,3.494-7.547,6.478-10.332
				c2.985-2.785,9.104-2.712,10.03,1.264c1.536-2.606,4.923-3.637,7.924-3.257c3.001,0.38,5.721,1.896,8.355,3.383
				c1.274,0.719,2.548,1.439,3.822,2.158c1.82,1.027,3.697,2.105,4.922,3.798c1.807,2.498,1.849,5.818,1.819,8.901
				c-0.08,8.308-0.337,16.636-0.239,24.943c0.044,3.709,1.856,11.438-1.176,14.411c-3.349,3.284-13.076,0.559-17.367,0.368
				c-7.756-0.345-15.543-0.819-23.297-0.168C475.824,482.842,457.155,487.487,408.56,471.848z"/>
		</g>
	</g>
</g>
</svg>
